<svg id="svg" version="1.1" xmlns="http://www.w3.org/2000/svg" xmlns:xlink="http://www.w3.org/1999/xlink" width="2400" height="900" viewBox="0 0 2400 900"><g id="svgg"><path id="path0" d="M248.828 142.704 C 248.091 143.084,247.864 143.497,247.901 144.383 C 247.948 145.483,251.130 152.907,251.427 152.609 C 251.502 152.534,250.775 150.730,249.812 148.600 C 247.741 144.024,247.744 144.041,249.121 143.014 C 250.354 142.094,250.240 141.974,248.828 142.704 M251.786 143.704 C 251.669 143.894,252.342 145.696,253.282 147.708 C 258.720 159.355,263.269 177.734,260.714 177.734 C 259.990 177.734,259.549 176.789,258.982 174.023 C 257.892 168.712,252.979 154.431,251.859 153.320 C 251.596 153.060,251.514 153.060,251.611 153.320 C 251.692 153.535,252.673 156.024,253.793 158.850 C 256.204 164.941,258.606 172.967,258.713 175.290 C 258.755 176.202,258.921 176.949,259.082 176.950 C 259.243 176.952,259.375 177.228,259.375 177.564 C 259.375 178.017,259.701 178.143,260.645 178.052 C 262.544 177.869,262.194 173.212,259.557 163.571 C 259.219 162.334,259.050 161.147,259.182 160.934 C 259.313 160.721,259.251 160.547,259.044 160.547 C 258.582 160.547,257.353 157.068,257.647 156.592 C 257.764 156.404,257.672 156.250,257.445 156.250 C 257.217 156.250,257.031 156.065,257.031 155.839 C 257.031 155.448,254.719 149.826,253.022 146.094 C 252.583 145.127,252.221 144.116,252.218 143.848 C 252.213 143.273,252.080 143.229,251.786 143.704 M296.392 149.474 C 298.587 150.556,298.439 151.402,295.236 156.117 C 291.159 162.118,286.419 169.922,286.852 169.922 C 286.941 169.922,288.028 168.208,289.268 166.113 C 291.310 162.664,297.840 152.820,298.402 152.344 C 299.310 151.575,297.367 148.821,295.928 148.837 C 295.293 148.844,295.394 148.983,296.392 149.474 M292.563 152.847 C 291.502 154.441,291.367 154.688,291.556 154.688 C 291.849 154.688,293.464 152.318,293.290 152.144 C 293.204 152.058,292.877 152.375,292.563 152.847 M290.129 156.506 C 288.761 158.684,288.023 160.246,288.866 159.180 C 290.081 157.642,291.442 155.374,291.258 155.191 C 291.156 155.088,290.648 155.680,290.129 156.506 M286.413 162.991 C 283.426 168.229,278.125 179.963,278.125 181.336 C 278.125 182.804,279.689 183.202,280.859 182.031 C 281.289 181.602,281.552 181.250,281.443 181.250 C 281.334 181.250,282.494 178.745,284.021 175.684 C 285.548 172.622,286.605 170.301,286.369 170.526 C 286.134 170.750,284.696 173.387,283.173 176.385 C 280.027 182.583,279.931 182.719,279.162 182.081 C 278.050 181.159,281.284 173.097,286.690 163.318 C 287.569 161.726,288.230 160.365,288.158 160.293 C 288.086 160.221,287.301 161.435,286.413 162.991 M180.688 213.337 C 178.606 213.629,174.957 214.681,172.852 215.597 C 172.422 215.784,170.488 216.594,168.555 217.397 C 166.621 218.200,163.545 219.646,161.719 220.611 C 159.893 221.577,158.004 222.563,157.523 222.804 C 157.041 223.045,156.645 223.374,156.644 223.535 C 156.642 223.696,156.480 223.828,156.283 223.828 C 156.087 223.828,154.517 224.777,152.794 225.936 C 149.575 228.103,149.362 228.260,147.592 229.774 C 147.020 230.264,145.793 231.279,144.866 232.031 C 139.762 236.171,129.297 247.721,129.297 249.215 C 129.297 249.432,129.133 249.609,128.933 249.609 C 128.732 249.609,128.470 249.917,128.349 250.293 C 128.228 250.669,127.666 251.504,127.099 252.148 C 125.890 253.523,124.429 256.591,124.804 256.966 C 124.948 257.109,127.643 257.247,130.794 257.273 C 137.945 257.330,147.520 258.184,151.758 259.142 C 152.188 259.239,153.857 259.598,155.469 259.939 C 160.107 260.922,167.841 263.135,172.691 264.868 C 175.142 265.744,177.588 266.604,178.125 266.779 C 180.248 267.470,185.373 269.610,185.723 269.951 C 185.927 270.150,186.349 270.313,186.660 270.313 C 189.603 270.313,218.455 286.286,223.377 290.640 C 224.096 291.276,224.813 291.797,224.970 291.797 C 225.126 291.797,225.667 292.236,226.172 292.773 C 226.676 293.311,227.322 293.750,227.607 293.750 C 227.892 293.750,228.125 293.926,228.125 294.141 C 228.125 294.355,228.350 294.531,228.625 294.531 C 228.900 294.531,229.378 294.883,229.688 295.313 C 229.997 295.742,230.432 296.099,230.653 296.105 C 230.874 296.111,231.567 296.638,232.194 297.276 C 232.821 297.915,233.524 298.440,233.757 298.444 C 233.989 298.447,235.059 299.246,236.133 300.220 C 237.207 301.194,238.600 302.378,239.228 302.851 C 239.856 303.324,241.087 304.357,241.963 305.147 C 242.838 305.937,244.873 307.717,246.484 309.102 C 248.096 310.487,250.107 312.390,250.955 313.330 C 251.802 314.270,253.560 316.185,254.861 317.587 C 259.648 322.742,266.292 331.524,268.340 335.404 C 269.005 336.664,269.924 338.311,270.382 339.063 C 271.513 340.918,276.172 350.295,276.172 350.715 C 276.172 350.900,276.452 351.614,276.795 352.301 C 277.137 352.987,277.476 353.849,277.546 354.216 C 277.617 354.583,277.710 354.927,277.753 354.980 C 277.797 355.034,277.876 355.254,277.930 355.469 C 277.983 355.684,278.071 355.947,278.125 356.055 C 278.179 356.162,278.267 356.426,278.320 356.641 C 278.374 356.855,278.462 357.119,278.516 357.227 C 278.569 357.334,278.657 357.598,278.711 357.813 C 278.765 358.027,278.844 358.247,278.887 358.301 C 278.931 358.354,279.047 358.750,279.146 359.180 C 279.245 359.609,279.368 360.137,279.420 360.352 C 279.472 360.566,279.659 360.974,279.835 361.256 C 280.012 361.539,280.057 361.870,279.936 361.991 C 279.814 362.113,279.876 362.513,280.073 362.882 C 280.442 363.571,280.775 364.945,281.067 366.992 C 281.160 367.637,281.306 368.604,281.393 369.141 C 281.905 372.295,282.158 374.159,282.215 375.195 C 282.320 377.111,282.845 378.906,283.299 378.906 C 283.839 378.906,284.150 378.629,288.867 373.945 C 292.502 370.336,294.181 368.507,296.393 365.751 C 296.879 365.145,297.714 364.121,298.248 363.477 C 298.781 362.832,299.218 362.085,299.218 361.816 C 299.219 361.548,299.395 361.328,299.609 361.328 C 299.824 361.328,300.000 361.079,300.000 360.775 C 300.000 360.470,300.153 360.163,300.340 360.091 C 300.762 359.930,303.516 355.641,303.516 355.145 C 303.516 354.946,303.777 354.566,304.097 354.300 C 304.417 354.035,304.583 353.662,304.465 353.471 C 304.347 353.281,304.416 353.125,304.619 353.125 C 304.821 353.125,305.090 352.817,305.217 352.441 C 305.343 352.065,305.607 351.494,305.804 351.172 C 309.005 345.928,308.702 341.416,304.439 330.859 C 301.503 323.591,295.920 312.563,294.551 311.328 C 294.432 311.221,294.087 310.652,293.785 310.065 C 293.482 309.478,292.911 308.650,292.516 308.226 C 292.120 307.802,291.797 307.286,291.797 307.080 C 291.797 306.874,291.654 306.647,291.480 306.576 C 291.306 306.504,289.864 304.775,288.276 302.734 C 282.415 295.202,276.774 289.027,270.609 283.394 C 268.730 281.678,267.192 280.054,267.191 279.785 C 267.189 279.517,266.987 279.297,266.742 279.297 C 266.497 279.297,266.102 279.057,265.863 278.764 C 265.625 278.471,263.321 276.594,260.744 274.593 C 258.167 272.593,254.979 270.108,253.660 269.072 C 252.342 268.035,251.126 267.188,250.959 267.188 C 250.793 267.188,248.267 265.634,245.348 263.734 C 238.831 259.496,231.910 255.463,223.438 250.969 C 215.560 246.791,215.504 246.762,213.086 245.707 C 212.012 245.238,210.430 244.530,209.570 244.133 C 207.403 243.133,200.444 240.263,199.023 239.784 C 198.379 239.567,197.500 239.246,197.070 239.071 C 196.641 238.896,194.928 238.255,193.265 237.647 L 190.241 236.541 193.461 234.482 C 195.231 233.350,196.812 232.423,196.973 232.422 C 197.134 232.422,197.624 232.064,198.061 231.626 C 198.499 231.189,199.002 230.921,199.181 231.031 C 199.359 231.141,199.819 230.884,200.204 230.460 C 200.588 230.035,201.139 229.688,201.428 229.688 C 201.717 229.688,201.953 229.512,201.953 229.297 C 201.953 229.082,202.305 228.906,202.734 228.906 C 203.164 228.906,203.516 228.763,203.516 228.588 C 203.516 228.229,213.958 222.917,216.735 221.863 C 221.179 220.176,219.703 219.176,208.594 216.345 C 195.972 213.129,188.176 212.289,180.688 213.337 M115.452 287.055 C 113.901 287.392,112.994 289.067,112.670 292.188 C 112.525 293.584,112.328 294.859,112.233 295.022 C 112.005 295.412,112.053 312.197,112.289 314.453 C 113.077 321.983,112.540 321.430,119.051 321.407 C 122.011 321.396,125.747 321.505,127.353 321.649 C 131.052 321.980,137.407 322.681,138.235 322.850 C 145.066 324.240,147.417 324.792,150.107 325.637 C 153.404 326.672,159.699 329.042,160.868 329.688 C 161.229 329.887,163.369 330.951,165.625 332.051 C 167.881 333.152,170.869 334.737,172.266 335.574 C 173.662 336.410,175.112 337.206,175.488 337.343 C 175.864 337.479,176.172 337.757,176.172 337.959 C 176.172 338.162,176.348 338.219,176.563 338.086 C 176.777 337.953,176.953 338.001,176.953 338.192 C 176.953 338.383,177.437 338.787,178.027 339.089 C 179.349 339.763,181.161 340.985,182.183 341.890 C 182.605 342.264,183.271 342.671,183.663 342.795 C 184.054 342.920,184.375 343.185,184.375 343.386 C 184.375 343.586,184.599 343.750,184.874 343.750 C 188.024 343.750,205.962 362.427,211.426 371.396 C 214.460 376.375,220.409 387.941,221.117 390.234 C 221.349 390.986,221.685 391.953,221.864 392.383 C 222.751 394.512,223.835 397.546,223.959 398.242 C 224.706 402.457,225.821 405.503,226.746 405.855 C 227.592 406.177,235.010 405.130,237.693 404.311 C 247.574 401.292,256.592 397.857,256.690 397.076 C 256.904 395.381,256.881 394.671,256.563 393.054 C 256.363 392.040,256.120 390.771,256.022 390.234 C 254.797 383.504,251.078 372.230,247.807 365.334 C 246.865 363.347,246.094 361.545,246.094 361.330 C 246.094 361.114,245.908 360.938,245.680 360.938 C 245.453 360.938,245.363 360.782,245.480 360.591 C 245.598 360.401,245.433 360.028,245.113 359.762 C 244.793 359.497,244.531 359.067,244.531 358.807 C 244.531 358.169,236.884 346.794,233.357 342.188 C 224.500 330.618,210.870 317.854,200.391 311.317 C 199.209 310.580,198.010 309.754,197.726 309.481 C 197.442 309.208,197.042 308.984,196.838 308.984 C 196.633 308.984,194.844 308.012,192.862 306.823 C 177.694 297.725,159.363 290.824,144.141 288.482 C 141.885 288.134,139.688 287.653,139.258 287.412 C 138.399 286.930,117.469 286.616,115.452 287.055 M122.804 347.836 C 122.550 348.496,125.630 355.021,126.591 355.859 C 126.714 355.967,126.941 356.318,127.095 356.641 C 127.637 357.777,130.480 362.223,130.840 362.500 C 130.980 362.607,131.701 363.566,132.442 364.631 C 134.226 367.194,134.791 367.927,135.840 369.031 C 136.323 369.541,136.719 370.039,136.719 370.139 C 136.719 370.862,146.372 380.395,150.391 383.642 C 150.928 384.075,151.849 384.857,152.438 385.379 C 153.027 385.901,153.619 386.328,153.754 386.328 C 153.888 386.328,154.637 386.862,155.417 387.514 C 157.636 389.368,157.757 389.453,158.154 389.453 C 158.360 389.453,158.587 389.606,158.659 389.793 C 158.834 390.252,162.864 392.791,163.965 393.136 C 164.448 393.288,164.844 393.536,164.844 393.687 C 164.844 393.839,165.503 394.286,166.309 394.681 C 167.114 395.075,168.037 395.555,168.359 395.747 C 168.682 395.939,169.912 396.548,171.094 397.101 C 178.158 400.403,182.375 401.903,190.924 404.150 C 198.245 406.075,199.750 405.822,198.813 402.828 C 197.462 398.511,195.919 394.315,195.643 394.206 C 195.461 394.134,195.313 393.904,195.313 393.693 C 195.313 393.139,193.369 389.114,192.987 388.879 C 192.810 388.769,192.546 388.205,192.400 387.625 C 192.063 386.281,189.297 381.531,188.167 380.355 C 187.693 379.861,186.214 378.051,184.880 376.333 C 179.574 369.495,170.194 361.321,160.938 355.467 C 158.467 353.905,155.972 352.301,155.393 351.904 C 154.508 351.296,153.334 351.153,147.972 351.000 C 141.681 350.821,139.204 350.650,136.914 350.236 C 136.270 350.119,134.600 349.852,133.203 349.641 C 130.406 349.220,129.829 349.103,127.538 348.497 C 126.679 348.270,125.496 348.000,124.909 347.897 C 124.322 347.794,123.661 347.599,123.441 347.463 C 123.221 347.327,122.934 347.495,122.804 347.836 " stroke="none" fill="#043c6b" fill-rule="evenodd"/><path id="path1" d="M256.345 185.707 C 256.326 185.941,256.111 187.271,255.867 188.662 C 255.623 190.053,255.505 191.503,255.605 191.885 C 255.705 192.267,255.627 192.481,255.432 192.360 C 255.238 192.240,255.078 192.520,255.078 192.983 C 255.078 193.795,254.318 196.648,252.686 201.953 C 251.738 205.035,251.576 205.455,250.228 208.295 C 249.644 209.527,249.293 210.757,249.450 211.029 C 249.607 211.301,249.599 211.401,249.433 211.251 C 249.044 210.901,247.206 214.492,247.446 215.132 C 247.546 215.398,247.442 215.574,247.215 215.523 C 246.698 215.406,244.503 219.560,244.814 220.064 C 244.940 220.267,244.863 220.322,244.643 220.186 C 244.224 219.927,240.495 225.217,240.495 226.070 C 240.495 226.341,240.413 226.481,240.313 226.380 C 240.155 226.223,238.529 228.177,237.305 229.993 C 237.090 230.312,236.509 230.990,236.014 231.501 C 235.519 232.011,235.221 232.601,235.351 232.811 C 235.482 233.023,235.335 233.097,235.021 232.977 C 234.709 232.857,234.321 232.974,234.159 233.237 C 233.952 233.571,234.028 233.615,234.412 233.381 C 234.714 233.197,233.643 234.336,232.031 235.912 C 230.420 237.488,229.146 238.930,229.199 239.115 C 229.253 239.301,229.151 239.409,228.972 239.355 C 228.794 239.302,227.861 240.049,226.900 241.016 C 224.979 242.947,223.937 243.870,220.661 246.538 L 218.471 248.322 221.369 249.755 C 222.962 250.544,224.458 251.070,224.693 250.925 C 224.945 250.769,225.010 250.840,224.850 251.098 C 224.683 251.369,225.477 251.989,226.934 252.725 C 230.940 254.747,239.299 259.648,244.429 262.982 L 249.326 266.164 250.049 265.211 C 250.447 264.687,251.093 263.906,251.483 263.477 C 251.873 263.047,252.701 261.992,253.322 261.133 C 253.943 260.273,254.636 259.441,254.862 259.283 C 255.088 259.125,255.152 258.994,255.002 258.990 C 254.853 258.987,255.235 258.434,255.849 257.761 C 256.509 257.039,256.873 256.292,256.737 255.939 C 256.598 255.576,256.671 255.441,256.921 255.596 C 257.389 255.885,258.222 255.029,258.355 254.121 C 258.404 253.788,258.716 253.296,259.047 253.027 C 259.574 252.601,260.713 250.923,264.285 245.313 C 266.778 241.395,272.005 231.180,272.005 230.224 C 272.005 229.929,272.130 229.688,272.283 229.688 C 272.566 229.688,273.319 228.024,273.522 226.953 C 273.583 226.631,273.739 226.279,273.868 226.172 C 274.257 225.849,278.198 215.139,278.684 213.086 C 278.735 212.871,279.081 211.687,279.453 210.454 C 279.826 209.222,280.004 208.008,279.849 207.757 C 279.680 207.484,279.736 207.406,279.989 207.562 C 280.258 207.728,280.569 207.004,280.846 205.572 C 281.085 204.333,281.544 202.178,281.867 200.781 C 282.190 199.385,282.490 197.199,282.535 195.924 L 282.617 193.606 280.078 192.655 C 278.682 192.132,277.188 191.551,276.758 191.363 C 275.655 190.881,266.850 188.020,262.891 186.856 C 258.349 185.522,256.389 185.178,256.345 185.707 M289.984 227.932 C 289.860 228.255,289.829 229.121,289.915 229.857 C 290.001 230.593,289.932 231.109,289.762 231.004 C 289.592 230.899,289.453 231.351,289.453 232.008 C 289.453 233.519,289.549 233.024,288.477 237.030 C 287.487 240.731,285.400 247.107,284.552 249.023 C 283.241 251.986,282.837 253.239,283.071 253.617 C 283.218 253.856,283.136 253.911,282.873 253.748 C 282.615 253.589,282.422 253.701,282.422 254.012 C 282.422 254.311,281.631 256.158,280.664 258.119 C 279.697 260.079,278.906 261.762,278.906 261.858 C 278.906 262.014,278.271 263.157,275.335 268.287 C 274.928 268.999,274.713 269.773,274.858 270.007 C 275.002 270.242,274.943 270.323,274.726 270.189 C 274.508 270.055,273.861 270.775,273.286 271.789 C 271.870 274.290,271.577 274.737,269.400 277.701 L 267.511 280.273 269.719 282.331 C 270.933 283.463,272.095 284.285,272.301 284.158 C 272.507 284.030,272.627 284.081,272.568 284.269 C 272.429 284.713,282.104 294.923,282.457 294.705 C 282.604 294.614,282.964 294.846,283.257 295.219 C 283.738 295.834,283.724 295.847,283.105 295.362 C 281.891 294.410,282.377 295.312,284.241 297.472 C 285.242 298.631,286.236 299.471,286.450 299.339 C 286.677 299.199,286.716 299.297,286.546 299.574 C 286.226 300.091,287.414 301.662,287.899 301.362 C 288.060 301.262,288.432 301.486,288.725 301.860 C 289.207 302.474,289.193 302.488,288.574 302.003 C 287.587 301.229,287.734 301.870,288.893 303.388 C 289.444 304.111,290.068 304.595,290.279 304.465 C 290.521 304.315,290.491 304.020,290.198 303.667 C 289.823 303.215,289.852 303.153,290.345 303.342 C 290.747 303.496,291.201 303.197,291.667 302.472 C 292.057 301.864,292.514 301.191,292.682 300.977 C 293.432 300.015,296.875 293.976,296.875 293.621 C 296.875 293.403,297.166 292.904,297.522 292.511 C 298.379 291.564,301.504 285.162,300.988 285.411 C 300.767 285.518,300.854 285.372,301.181 285.088 C 301.971 284.400,305.140 277.301,305.215 276.050 C 305.247 275.508,305.416 275.095,305.589 275.130 C 306.075 275.230,307.041 272.170,306.802 271.289 C 306.630 270.655,306.667 270.618,307.000 271.094 C 307.411 271.681,307.584 271.203,307.528 269.633 C 307.518 269.367,307.646 269.233,307.812 269.336 C 307.978 269.438,308.199 269.129,308.304 268.648 C 308.408 268.167,308.961 266.196,309.533 264.267 C 311.191 258.677,311.242 256.440,309.779 253.542 C 309.028 252.055,308.401 251.245,308.130 251.413 C 307.861 251.578,307.801 251.507,307.973 251.228 C 308.272 250.744,306.254 246.907,305.271 246.092 C 304.950 245.825,304.688 245.355,304.688 245.046 C 304.688 244.722,304.497 244.603,304.237 244.764 C 303.981 244.922,303.891 244.872,304.028 244.651 C 304.161 244.435,303.918 243.881,303.487 243.419 C 303.056 242.956,302.814 242.578,302.949 242.578 C 303.084 242.578,302.739 242.037,302.183 241.376 C 301.627 240.715,301.170 240.056,301.167 239.911 C 301.164 239.767,300.461 238.894,299.605 237.971 C 298.748 237.049,298.047 236.107,298.047 235.879 C 298.047 235.650,297.774 235.568,297.441 235.696 C 297.071 235.838,296.934 235.767,297.090 235.515 C 297.230 235.288,297.063 234.807,296.719 234.446 C 296.374 234.084,295.289 232.775,294.308 231.536 C 293.327 230.298,292.357 229.388,292.151 229.515 C 291.946 229.642,291.819 229.601,291.870 229.424 C 292.205 228.261,290.404 226.837,289.984 227.932 M187.614 270.947 C 187.748 271.082,186.647 271.821,185.167 272.590 C 183.687 273.360,182.578 274.156,182.704 274.360 C 182.830 274.563,182.730 274.604,182.481 274.450 C 182.232 274.296,181.370 274.524,180.565 274.956 C 178.835 275.884,176.358 276.980,172.521 278.516 C 170.984 279.131,169.199 279.849,168.555 280.111 C 167.910 280.374,167.207 280.636,166.992 280.694 C 166.777 280.751,165.020 281.316,163.086 281.948 C 161.152 282.581,158.997 283.224,158.297 283.378 C 157.537 283.545,157.129 283.826,157.284 284.077 C 157.431 284.315,157.360 284.383,157.119 284.234 C 156.887 284.090,154.970 284.431,152.860 284.991 C 150.750 285.551,148.408 286.096,147.656 286.203 C 146.904 286.309,145.872 286.663,145.362 286.989 C 144.852 287.315,144.555 287.387,144.702 287.150 C 144.848 286.913,144.782 286.719,144.554 286.719 C 144.327 286.719,144.141 286.896,144.141 287.113 C 144.141 287.330,143.569 287.440,142.871 287.358 C 139.641 286.977,140.489 287.777,143.811 288.245 C 157.439 290.165,174.718 296.405,189.549 304.763 C 191.428 305.822,193.146 306.577,193.368 306.440 C 193.589 306.304,193.721 306.425,193.662 306.709 C 193.603 306.995,193.858 307.203,194.234 307.173 C 194.608 307.144,194.828 307.257,194.725 307.425 C 194.621 307.593,194.808 307.835,195.140 307.962 C 195.472 308.090,195.641 308.028,195.515 307.825 C 195.390 307.621,195.855 307.161,196.550 306.802 C 197.245 306.443,198.054 305.908,198.349 305.613 C 198.643 305.319,199.135 305.078,199.442 305.078 C 199.749 305.078,200.000 304.892,200.000 304.664 C 200.000 304.437,200.150 304.344,200.333 304.457 C 200.517 304.570,201.440 304.184,202.384 303.599 C 203.329 303.013,204.579 302.289,205.162 301.990 C 205.746 301.690,206.113 301.252,205.979 301.015 C 205.844 300.779,205.867 300.705,206.029 300.851 C 206.511 301.283,212.891 297.561,212.891 296.847 C 212.891 296.622,213.079 296.555,213.310 296.698 C 213.541 296.840,214.112 296.611,214.580 296.188 C 215.047 295.764,216.268 294.937,217.292 294.348 C 218.316 293.759,219.370 292.968,219.635 292.590 C 220.092 291.938,220.312 291.808,220.996 291.788 C 221.157 291.783,221.703 291.461,222.209 291.072 L 223.129 290.365 218.889 287.631 C 208.573 280.981,185.155 268.489,187.614 270.947 M243.555 309.838 C 242.695 310.716,240.804 312.463,239.351 313.720 C 237.899 314.977,236.718 316.105,236.728 316.226 C 236.738 316.347,235.967 317.008,235.014 317.696 C 229.432 321.721,222.361 327.309,222.576 327.524 C 222.715 327.663,222.543 327.667,222.196 327.533 C 221.848 327.400,221.445 327.482,221.300 327.716 C 221.005 328.193,229.187 336.976,229.768 336.807 C 229.971 336.748,230.034 336.865,229.909 337.067 C 229.630 337.519,231.591 339.920,232.023 339.654 C 232.194 339.548,232.573 339.767,232.866 340.141 C 233.348 340.756,233.333 340.769,232.715 340.284 C 231.545 339.367,231.942 340.056,234.639 343.622 C 236.073 345.519,238.362 348.784,239.724 350.879 C 242.011 354.393,243.251 355.900,242.137 353.809 C 241.719 353.023,241.736 352.985,242.294 353.445 C 243.045 354.065,243.742 353.752,246.671 351.482 C 250.430 348.570,250.734 348.286,250.503 347.912 C 250.365 347.690,250.479 347.665,250.780 347.851 C 251.101 348.049,251.485 347.899,251.817 347.446 C 252.107 347.050,252.344 346.874,252.344 347.056 C 252.344 347.238,252.691 347.072,253.116 346.688 C 253.540 346.304,253.777 345.810,253.641 345.591 C 253.505 345.370,253.586 345.310,253.823 345.456 C 254.059 345.602,254.795 345.190,255.460 344.540 C 256.124 343.891,256.779 343.359,256.915 343.359 C 257.050 343.359,257.616 342.939,258.171 342.424 C 260.498 340.268,262.098 338.814,263.066 337.977 C 263.632 337.487,263.986 336.912,263.854 336.698 C 263.722 336.484,263.759 336.341,263.936 336.380 C 264.493 336.504,265.629 335.870,265.430 335.547 C 265.325 335.377,265.502 335.137,265.823 335.014 C 266.144 334.891,266.406 334.499,266.406 334.144 C 266.406 333.587,266.497 333.572,267.065 334.034 C 267.616 334.482,267.600 334.357,266.967 333.267 C 265.564 330.849,259.965 323.633,259.492 323.633 C 259.234 323.633,258.795 323.378,258.516 323.066 C 258.077 322.576,258.101 322.569,258.691 323.016 C 259.909 323.937,259.419 322.987,257.520 320.745 C 253.916 316.491,249.118 311.735,248.682 311.984 C 248.440 312.122,248.378 312.085,248.544 311.903 C 248.818 311.601,245.826 308.177,245.329 308.223 C 245.212 308.233,244.414 308.960,243.555 309.838 M185.453 345.091 C 185.085 345.360,182.593 346.257,179.915 347.084 C 177.237 347.910,175.124 348.713,175.219 348.866 C 175.314 349.020,175.072 349.062,174.682 348.960 C 174.292 348.858,172.578 349.126,170.873 349.555 C 166.843 350.570,163.648 351.151,160.742 351.397 C 159.453 351.507,158.135 351.703,157.813 351.835 C 157.490 351.966,156.875 352.030,156.445 351.977 C 156.016 351.924,157.773 353.228,160.352 354.875 C 165.747 358.321,173.016 363.744,174.979 365.787 C 176.295 367.156,177.278 367.672,176.718 366.699 C 176.555 366.416,176.586 366.347,176.793 366.536 C 176.988 366.715,177.148 366.988,177.148 367.143 C 177.148 367.646,183.728 374.573,184.029 374.387 C 184.189 374.287,184.448 374.412,184.604 374.663 C 184.780 374.949,184.717 375.016,184.435 374.842 C 183.615 374.335,183.963 374.972,185.797 377.333 C 186.882 378.731,187.783 379.553,188.043 379.384 C 188.281 379.229,188.740 379.084,189.063 379.062 C 189.385 379.040,190.054 378.996,190.550 378.964 C 191.046 378.932,191.371 378.774,191.271 378.613 C 191.172 378.452,191.552 378.293,192.115 378.259 C 193.654 378.166,197.656 376.880,197.656 376.478 C 197.656 376.284,197.840 376.239,198.064 376.378 C 198.427 376.602,203.334 374.894,207.617 373.053 C 210.223 371.932,210.730 371.748,211.035 371.813 C 211.544 371.921,211.366 371.529,209.911 369.338 C 209.091 368.104,208.309 367.309,208.055 367.453 C 207.814 367.591,207.750 367.557,207.912 367.379 C 208.487 366.745,202.191 358.791,201.467 359.239 C 201.216 359.394,201.166 359.310,201.342 359.025 C 201.671 358.493,196.413 353.118,190.837 348.286 C 186.631 344.640,186.321 344.457,185.453 345.091 " stroke="none" fill="#16aacc" fill-rule="evenodd"/><path id="path2" d="M281.157 133.279 C 280.672 133.644,280.097 135.731,279.133 140.625 C 277.598 148.422,276.842 151.936,274.801 160.742 C 270.969 177.281,270.711 178.832,271.677 179.539 C 272.689 180.278,273.687 179.586,273.998 177.930 C 274.141 177.167,274.667 175.272,275.168 173.720 C 277.214 167.374,278.958 161.608,280.453 156.250 C 281.323 153.135,282.643 148.564,283.388 146.094 C 285.644 138.606,286.238 134.888,285.319 133.990 C 284.318 133.011,282.033 132.621,281.157 133.279 M264.814 134.094 C 263.778 134.895,263.688 136.234,264.255 142.354 C 264.555 145.592,264.906 150.439,265.035 153.125 C 265.165 155.811,265.431 159.502,265.626 161.328 C 265.822 163.154,266.080 166.713,266.200 169.236 C 266.619 178.037,266.986 179.649,268.446 179.089 C 269.754 178.587,269.811 146.549,268.522 136.534 C 268.194 133.983,266.446 132.834,264.814 134.094 " stroke="none" fill="#e7c714" fill-rule="evenodd"/><path id="path3" d="M248.909 143.233 C 248.522 143.388,248.510 143.563,248.860 143.983 C 249.188 144.379,249.192 144.531,248.876 144.531 C 248.635 144.531,248.438 144.726,248.438 144.964 C 248.438 145.201,248.684 145.301,248.985 145.186 C 249.774 144.883,250.034 145.301,249.582 146.145 C 249.115 147.018,249.804 148.605,250.471 148.193 C 250.743 148.025,250.790 148.107,250.600 148.414 C 250.260 148.964,251.126 150.856,251.587 150.571 C 251.751 150.470,251.836 150.833,251.776 151.379 C 251.704 152.037,251.921 152.508,252.421 152.776 C 252.998 153.084,253.073 153.303,252.741 153.703 C 252.419 154.091,252.428 154.303,252.776 154.518 C 253.093 154.714,253.143 154.643,252.930 154.297 C 252.719 153.956,252.766 153.880,253.071 154.068 C 253.323 154.224,253.428 154.513,253.305 154.712 C 252.935 155.311,254.827 159.751,255.469 159.791 C 255.807 159.812,255.866 159.905,255.608 160.011 C 255.362 160.111,255.250 160.535,255.359 160.952 C 255.468 161.369,255.741 161.597,255.964 161.459 C 256.206 161.309,256.253 161.398,256.080 161.678 C 255.920 161.937,256.054 162.711,256.378 163.399 C 256.702 164.086,257.088 165.306,257.237 166.110 C 257.398 166.978,257.673 167.469,257.916 167.319 C 258.142 167.179,258.209 167.253,258.065 167.485 C 257.923 167.716,258.084 169.017,258.423 170.378 C 258.762 171.738,259.057 173.071,259.077 173.340 C 259.098 173.608,259.280 173.828,259.482 173.828 C 259.684 173.828,259.732 173.521,259.589 173.145 C 259.393 172.630,259.440 172.571,259.779 172.907 C 260.113 173.238,260.116 173.564,259.792 174.169 C 259.269 175.146,259.614 176.811,260.402 177.114 C 261.184 177.414,261.520 176.318,260.997 175.170 C 260.666 174.443,260.677 174.217,261.044 174.213 C 261.380 174.209,261.362 174.105,260.985 173.866 C 260.689 173.678,260.568 173.329,260.715 173.091 C 260.863 172.852,260.754 172.654,260.472 172.650 C 260.096 172.646,260.116 172.534,260.547 172.230 C 260.966 171.934,261.000 171.761,260.666 171.625 C 260.410 171.520,260.308 171.153,260.440 170.809 C 260.572 170.465,260.518 170.285,260.320 170.407 C 260.123 170.530,259.961 169.899,259.961 169.006 C 259.961 167.865,259.807 167.415,259.443 167.490 C 259.079 167.566,259.005 167.348,259.192 166.758 C 259.348 166.267,259.306 166.012,259.091 166.145 C 258.889 166.270,258.724 166.124,258.724 165.820 C 258.724 165.517,258.870 165.359,259.049 165.470 C 259.229 165.581,259.375 165.407,259.375 165.085 C 259.375 164.763,259.222 164.405,259.036 164.290 C 258.849 164.174,258.561 163.329,258.395 162.411 C 257.924 159.805,257.884 159.663,257.546 159.414 C 257.370 159.285,257.220 159.004,257.212 158.789 C 257.173 157.783,256.097 155.127,255.802 155.309 C 255.619 155.422,255.498 155.196,255.531 154.808 C 255.656 153.366,255.468 152.689,255.018 152.967 C 254.759 153.127,254.672 153.075,254.814 152.846 C 254.949 152.627,254.737 151.781,254.341 150.967 C 253.945 150.154,253.538 149.647,253.437 149.842 C 253.336 150.036,253.305 149.979,253.369 149.716 C 253.642 148.584,252.210 145.719,251.616 146.208 C 251.123 146.615,251.109 146.557,251.516 145.795 C 251.932 145.014,251.881 144.867,251.091 144.550 C 250.599 144.352,250.437 144.179,250.731 144.165 C 251.164 144.145,251.173 144.027,250.781 143.555 C 250.285 142.956,249.805 142.874,248.909 143.233 M295.488 149.967 C 295.609 150.164,295.214 150.823,294.609 151.432 C 293.506 152.542,292.782 153.822,292.916 154.424 C 292.956 154.601,292.808 154.634,292.588 154.498 C 292.222 154.272,292.012 154.798,292.151 155.595 C 292.182 155.773,292.052 155.822,291.862 155.704 C 291.672 155.587,291.185 156.141,290.778 156.934 C 290.372 157.728,289.731 158.723,289.355 159.146 C 288.829 159.737,288.784 159.986,289.160 160.225 C 289.513 160.449,289.520 160.537,289.186 160.541 C 288.932 160.544,288.612 160.901,288.475 161.334 C 288.337 161.767,288.036 162.004,287.806 161.862 C 287.531 161.692,287.456 161.963,287.587 162.651 C 287.729 163.394,287.588 163.806,287.103 164.066 C 286.311 164.490,283.898 168.924,284.262 169.288 C 284.396 169.422,284.281 169.531,284.008 169.531 C 283.719 169.531,283.608 169.785,283.743 170.137 C 283.895 170.534,283.819 170.647,283.523 170.464 C 283.218 170.276,283.154 170.403,283.328 170.855 C 283.477 171.243,283.427 171.427,283.209 171.292 C 283.002 171.165,282.632 171.856,282.387 172.830 C 282.141 173.803,281.787 174.505,281.600 174.389 C 281.412 174.273,281.364 174.451,281.492 174.784 C 281.620 175.118,281.540 175.391,281.314 175.391 C 281.089 175.391,280.973 175.747,281.057 176.182 C 281.141 176.618,281.055 176.879,280.866 176.762 C 280.677 176.645,280.412 176.728,280.277 176.947 C 280.142 177.165,280.252 177.344,280.520 177.344 C 280.789 177.344,280.667 177.602,280.250 177.917 C 279.833 178.233,279.668 178.499,279.883 178.509 C 280.098 178.519,280.010 178.698,279.688 178.906 C 279.255 179.186,279.236 179.286,279.618 179.291 C 280.005 179.295,279.981 179.450,279.520 179.911 C 278.675 180.756,278.719 181.991,279.590 181.855 C 280.001 181.791,280.262 181.423,280.245 180.933 C 280.229 180.484,280.379 180.218,280.579 180.342 C 280.789 180.471,280.832 180.216,280.680 179.739 C 280.483 179.117,280.557 178.965,280.979 179.126 C 281.288 179.245,281.648 179.060,281.781 178.713 C 281.921 178.348,281.861 178.184,281.636 178.323 C 281.424 178.454,281.250 178.376,281.250 178.148 C 281.250 177.921,281.480 177.734,281.761 177.734 C 282.558 177.734,283.938 174.429,283.481 173.613 C 283.250 173.200,283.248 173.028,283.475 173.169 C 284.103 173.557,285.158 172.034,284.630 171.501 C 284.289 171.158,284.327 171.103,284.785 171.278 C 285.205 171.438,285.660 171.028,286.275 169.934 C 286.761 169.068,287.027 168.359,286.864 168.359 C 286.702 168.359,286.911 168.083,287.328 167.744 C 287.745 167.406,287.849 167.252,287.559 167.401 C 287.134 167.620,287.117 167.512,287.475 166.844 C 287.719 166.388,288.010 166.016,288.123 166.016 C 288.235 166.016,288.219 166.191,288.086 166.406 C 287.953 166.621,287.937 166.797,288.049 166.797 C 288.162 166.797,288.453 166.424,288.697 165.968 C 289.002 165.398,289.008 165.222,288.715 165.403 C 288.451 165.566,288.378 165.438,288.522 165.062 C 288.649 164.729,288.911 164.555,289.103 164.674 C 289.296 164.793,289.453 164.671,289.453 164.404 C 289.453 164.136,289.849 163.482,290.332 162.950 C 290.815 162.419,291.003 162.103,290.750 162.248 C 290.496 162.394,290.161 162.307,290.006 162.055 C 289.850 161.804,289.884 161.698,290.081 161.819 C 290.277 161.941,290.778 161.792,291.192 161.489 C 291.607 161.186,291.781 160.935,291.579 160.932 C 291.376 160.928,291.408 160.796,291.648 160.639 C 291.888 160.481,292.674 159.385,293.394 158.203 C 294.114 157.021,295.103 155.617,295.593 155.082 C 296.083 154.547,296.484 153.976,296.484 153.813 C 296.484 153.082,296.575 152.910,297.120 152.605 C 297.601 152.336,297.613 152.174,297.190 151.651 C 296.811 151.184,296.805 151.097,297.168 151.315 C 297.437 151.477,297.656 151.422,297.656 151.195 C 297.656 150.967,297.480 150.781,297.266 150.781 C 297.051 150.781,296.875 150.518,296.875 150.195 C 296.875 149.864,296.525 149.609,296.071 149.609 C 295.628 149.609,295.366 149.770,295.488 149.967 M257.349 185.149 C 256.772 185.324,256.200 185.367,256.079 185.246 C 255.958 185.125,255.871 185.539,255.884 186.165 C 255.907 187.238,255.930 187.253,256.262 186.426 C 256.461 185.931,256.952 185.547,257.386 185.547 C 257.810 185.547,258.266 185.371,258.398 185.156 C 258.531 184.941,258.586 184.781,258.519 184.799 C 258.453 184.818,257.926 184.975,257.349 185.149 M259.223 185.476 C 259.115 185.652,259.544 185.720,260.177 185.627 C 260.810 185.534,261.328 185.390,261.328 185.307 C 261.328 185.010,259.417 185.163,259.223 185.476 M264.844 187.109 C 264.323 187.446,264.323 187.488,264.844 187.488 C 265.166 187.488,265.693 187.318,266.016 187.109 C 266.536 186.773,266.536 186.731,266.016 186.731 C 265.693 186.731,265.166 186.901,264.844 187.109 M277.344 190.859 L 278.320 191.455 277.385 191.257 C 276.762 191.125,276.580 191.190,276.840 191.450 C 277.055 191.664,277.717 191.718,278.311 191.569 L 279.392 191.298 278.128 190.766 C 276.473 190.070,276.121 190.112,277.344 190.859 M254.331 191.992 C 254.306 192.422,254.197 193.213,254.088 193.750 C 253.916 194.601,253.938 194.626,254.261 193.945 C 254.617 193.197,254.634 193.195,254.660 193.913 C 254.675 194.325,254.778 194.571,254.889 194.460 C 255.000 194.349,254.930 193.573,254.733 192.735 C 254.536 191.897,254.355 191.563,254.331 191.992 M282.031 192.969 C 281.621 193.234,281.596 193.349,281.946 193.353 C 282.222 193.357,282.606 193.755,282.800 194.238 C 283.085 194.946,283.158 194.980,283.178 194.411 C 283.193 194.000,283.383 193.815,283.633 193.969 C 283.935 194.156,283.931 193.989,283.619 193.407 C 283.125 192.484,282.884 192.417,282.031 192.969 M281.493 202.051 C 281.364 202.749,281.417 203.848,281.611 204.492 C 281.805 205.137,281.979 205.371,281.998 205.012 C 282.016 204.654,282.149 204.054,282.293 203.679 C 282.471 203.214,282.409 203.087,282.098 203.279 C 281.821 203.450,281.641 203.313,281.641 202.930 C 281.641 202.582,281.791 202.391,281.975 202.504 C 282.159 202.618,282.226 202.277,282.125 201.746 C 281.882 200.476,281.774 200.528,281.493 202.051 M249.282 208.025 C 248.628 209.461,248.753 209.767,249.460 208.462 C 249.791 207.852,249.988 207.280,249.899 207.190 C 249.809 207.101,249.532 207.476,249.282 208.025 M280.109 208.203 C 280.732 209.511,280.725 209.507,281.027 208.720 C 281.172 208.341,281.168 208.155,281.016 208.307 C 280.865 208.458,280.495 208.277,280.193 207.904 C 279.709 207.307,279.699 207.342,280.109 208.203 M247.248 212.533 C 247.008 212.982,246.914 213.450,247.039 213.575 C 247.163 213.700,247.268 213.553,247.272 213.249 C 247.276 212.797,247.338 212.791,247.608 213.216 C 247.872 213.633,247.987 213.610,248.183 213.098 C 248.346 212.674,248.277 212.553,247.976 212.739 C 247.674 212.926,247.606 212.803,247.773 212.369 C 248.126 211.449,247.768 211.561,247.248 212.533 M278.402 213.794 C 278.294 214.076,278.289 214.824,278.391 215.454 C 278.541 216.380,278.490 216.488,278.126 216.016 C 277.818 215.615,277.718 215.594,277.812 215.947 C 278.057 216.872,278.713 216.242,278.654 215.139 C 278.622 214.549,278.752 214.162,278.942 214.280 C 279.132 214.398,279.183 214.221,279.055 213.887 C 278.771 213.148,278.657 213.131,278.402 213.794 M246.252 214.513 C 246.066 214.814,246.146 214.857,246.490 214.645 C 246.855 214.420,246.941 214.498,246.783 214.910 C 246.652 215.251,246.778 215.495,247.086 215.495 C 247.477 215.495,247.515 215.309,247.231 214.779 C 246.783 213.942,246.630 213.901,246.252 214.513 M244.727 217.188 C 244.594 217.402,244.592 217.750,244.722 217.961 C 244.852 218.171,244.774 218.688,244.548 219.109 C 244.323 219.530,244.285 219.965,244.465 220.076 C 244.645 220.187,244.819 220.066,244.853 219.807 C 245.225 216.927,245.201 216.420,244.727 217.188 M277.555 217.630 C 277.748 218.238,277.688 218.377,277.325 218.153 C 277.005 217.955,276.930 218.006,277.111 218.299 C 277.492 218.915,277.642 218.870,278.104 218.008 C 278.408 217.440,278.359 217.211,277.897 217.034 C 277.427 216.853,277.351 216.986,277.555 217.630 M239.359 225.434 C 238.770 226.269,238.366 226.953,238.460 226.953 C 238.740 226.953,240.748 224.210,240.582 224.056 C 240.498 223.978,239.948 224.598,239.359 225.434 M238.673 227.637 C 238.193 228.246,237.920 228.415,238.042 228.027 C 238.358 227.021,238.161 227.167,236.716 229.004 C 235.581 230.447,235.551 230.536,236.487 229.688 C 237.079 229.150,237.681 228.770,237.824 228.841 C 237.968 228.913,238.504 228.430,239.015 227.767 C 239.526 227.105,239.848 226.563,239.731 226.563 C 239.614 226.563,239.138 227.046,238.673 227.637 M291.746 228.649 C 291.985 228.938,292.050 229.333,291.891 229.528 C 291.732 229.723,291.761 229.753,291.956 229.593 C 292.151 229.434,292.591 229.517,292.933 229.777 C 293.275 230.037,293.129 229.772,292.608 229.187 C 291.657 228.121,290.931 227.667,291.746 228.649 M236.143 230.848 C 235.758 231.274,235.320 231.547,235.171 231.454 C 234.784 231.215,234.942 232.735,235.341 233.098 C 235.523 233.263,235.547 233.180,235.393 232.913 C 235.231 232.631,235.540 232.002,236.135 231.407 C 236.697 230.845,237.086 230.316,237.000 230.230 C 236.914 230.144,236.529 230.422,236.143 230.848 M294.689 231.940 C 295.593 233.000,295.528 233.000,295.580 231.934 C 295.604 231.450,295.536 231.282,295.430 231.559 C 295.273 231.969,295.115 231.970,294.591 231.566 C 294.143 231.220,294.173 231.335,294.689 231.940 M271.687 232.789 C 271.545 233.238,271.267 233.506,271.070 233.384 C 270.873 233.262,270.828 233.463,270.969 233.833 C 271.143 234.285,271.079 234.412,270.774 234.223 C 270.471 234.036,270.405 234.161,270.574 234.603 C 270.774 235.123,270.985 234.955,271.575 233.805 C 271.986 233.004,272.238 232.264,272.134 232.160 C 272.031 232.057,271.830 232.340,271.687 232.789 M295.966 233.824 C 296.069 234.094,296.422 234.418,296.750 234.543 C 297.129 234.689,297.252 235.020,297.088 235.453 C 296.883 235.991,296.929 236.033,297.311 235.654 C 297.694 235.274,297.658 235.025,297.138 234.450 C 296.778 234.052,296.571 233.637,296.679 233.529 C 296.787 233.422,296.628 233.333,296.326 233.333 C 296.025 233.333,295.862 233.554,295.966 233.824 M269.296 236.003 C 269.185 236.182,269.200 236.499,269.329 236.707 C 269.458 236.916,269.288 237.619,268.951 238.270 C 268.615 238.921,268.429 239.453,268.538 239.453 C 268.647 239.453,269.167 238.604,269.694 237.565 C 270.531 235.912,270.187 234.560,269.296 236.003 M298.410 236.668 C 298.653 237.121,299.066 237.450,299.328 237.398 C 299.590 237.347,299.768 237.503,299.723 237.746 C 299.677 237.989,299.985 238.500,300.406 238.881 C 300.908 239.335,301.172 239.406,301.172 239.087 C 301.172 238.546,299.686 236.527,299.281 236.517 C 299.139 236.514,298.786 236.361,298.496 236.177 C 298.069 235.906,298.052 235.999,298.410 236.668 M229.077 237.598 L 227.930 238.867 229.199 237.720 C 230.383 236.650,230.648 236.328,230.347 236.328 C 230.279 236.328,229.708 236.899,229.077 237.598 M301.826 240.491 C 301.531 240.787,302.270 241.797,302.782 241.797 C 302.971 241.797,303.125 241.621,303.125 241.406 C 303.125 241.191,302.905 241.060,302.637 241.113 C 302.368 241.167,302.192 240.991,302.246 240.723 C 302.355 240.181,302.214 240.103,301.826 240.491 M267.035 241.177 C 267.233 241.696,267.182 241.839,266.868 241.645 C 266.566 241.459,266.498 241.581,266.664 242.015 C 266.895 242.615,266.941 242.614,267.286 241.997 C 267.536 241.551,267.509 241.182,267.205 240.880 C 266.860 240.539,266.819 240.610,267.035 241.177 M224.145 242.454 C 224.540 242.612,224.496 242.851,223.950 243.498 C 223.249 244.328,223.250 244.330,224.055 243.651 C 224.502 243.275,225.024 243.099,225.214 243.261 C 225.404 243.422,225.325 243.247,225.037 242.871 C 224.749 242.495,224.316 242.201,224.073 242.218 C 223.819 242.236,223.849 242.336,224.145 242.454 M264.978 244.773 C 265.012 245.167,264.834 245.493,264.583 245.498 C 264.333 245.504,263.981 245.668,263.802 245.863 C 263.613 246.070,263.681 246.101,263.965 245.938 C 264.561 245.595,264.585 245.898,264.043 246.912 C 263.817 247.333,263.486 247.587,263.306 247.476 C 263.126 247.365,263.003 247.580,263.032 247.953 C 263.062 248.327,262.873 248.591,262.612 248.540 C 262.319 248.483,262.232 248.694,262.385 249.092 C 262.544 249.507,262.479 249.642,262.202 249.472 C 261.612 249.107,260.436 250.827,260.935 251.325 C 261.402 251.793,261.208 252.023,263.653 248.098 C 264.993 245.945,265.557 244.697,265.303 244.443 C 265.048 244.189,264.938 244.302,264.978 244.773 M304.918 244.776 C 304.784 245.126,304.873 245.651,305.116 245.944 C 305.600 246.527,306.253 246.318,306.244 245.582 C 306.240 245.271,306.127 245.293,305.902 245.647 C 305.468 246.332,304.989 245.610,305.314 244.762 C 305.445 244.420,305.464 244.141,305.357 244.141 C 305.250 244.141,305.052 244.427,304.918 244.776 M220.096 245.737 C 219.611 246.522,220.548 246.948,221.130 246.208 C 221.642 245.556,221.627 245.548,220.923 246.094 C 220.235 246.626,220.190 246.618,220.422 245.996 C 220.707 245.237,220.504 245.077,220.096 245.737 M219.177 246.748 C 219.208 246.925,219.199 247.158,219.157 247.266 C 218.775 248.246,218.892 248.749,219.452 248.534 C 219.880 248.370,219.924 248.243,219.593 248.133 C 219.238 248.014,219.222 247.833,219.534 247.458 C 219.836 247.093,219.838 246.869,219.541 246.685 C 219.310 246.543,219.146 246.571,219.177 246.748 M306.541 246.940 C 306.275 247.687,306.990 248.900,307.508 248.580 C 307.796 248.402,307.857 248.539,307.688 248.980 C 307.537 249.373,307.588 249.553,307.812 249.415 C 308.039 249.274,308.133 249.692,308.044 250.455 C 307.916 251.550,307.964 251.637,308.381 251.067 C 308.648 250.702,308.991 250.527,309.143 250.679 C 309.483 251.020,308.647 249.471,307.546 247.722 C 307.024 246.892,306.660 246.609,306.541 246.940 M283.834 248.265 C 283.692 248.636,283.667 249.032,283.780 249.144 C 283.892 249.257,283.987 249.100,283.990 248.796 C 283.995 248.340,284.063 248.346,284.375 248.828 C 284.583 249.150,284.754 249.238,284.754 249.023 C 284.754 248.111,284.100 247.572,283.834 248.265 M258.544 253.418 C 258.517 253.579,258.473 254.150,258.447 254.688 C 258.409 255.441,258.198 255.653,257.520 255.617 C 257.036 255.592,256.641 255.722,256.641 255.908 C 256.641 256.705,258.436 255.874,259.352 254.652 C 260.076 253.688,260.143 253.482,259.595 253.906 C 258.907 254.439,258.861 254.430,259.094 253.809 C 259.235 253.433,259.180 253.125,258.972 253.125 C 258.764 253.125,258.572 253.257,258.544 253.418 M282.031 254.645 C 282.031 254.909,281.868 255.023,281.668 254.899 C 281.468 254.776,281.177 254.881,281.021 255.132 C 280.845 255.418,280.908 255.485,281.190 255.311 C 281.442 255.155,281.646 255.257,281.653 255.543 C 281.660 255.846,281.834 255.763,282.079 255.342 C 282.307 254.950,282.389 254.525,282.262 254.398 C 282.135 254.271,282.031 254.382,282.031 254.645 M310.801 255.485 C 311.095 255.781,311.139 256.329,310.928 257.066 C 310.720 257.789,310.756 258.286,311.027 258.454 C 311.278 258.609,311.336 258.532,311.170 258.263 C 311.017 258.015,311.034 257.812,311.207 257.812 C 311.826 257.810,311.619 255.514,310.978 255.270 C 310.504 255.090,310.461 255.142,310.801 255.485 M255.035 258.958 C 255.363 259.161,255.445 259.493,255.248 259.820 C 254.981 260.263,255.038 260.263,255.589 259.815 C 256.481 259.092,256.421 258.773,255.376 258.694 C 254.754 258.647,254.656 258.724,255.035 258.958 M253.516 260.814 C 252.979 261.602,252.566 262.348,252.598 262.471 C 252.748 263.039,251.884 264.011,251.397 263.824 C 251.073 263.700,250.748 263.943,250.596 264.423 C 250.455 264.867,250.094 265.476,249.793 265.776 C 249.325 266.244,249.357 266.351,250.014 266.523 C 250.465 266.641,250.781 266.529,250.781 266.250 C 250.781 265.990,251.752 264.600,252.938 263.162 C 254.125 261.724,254.921 260.547,254.708 260.547 C 254.496 260.547,254.423 260.283,254.546 259.961 C 254.918 258.992,254.548 259.298,253.516 260.814 M310.651 262.924 C 310.486 263.557,310.357 263.622,310.072 263.217 C 309.772 262.789,309.731 262.789,309.843 263.213 C 310.049 263.991,310.665 263.835,311.003 262.920 C 311.168 262.474,311.204 262.109,311.084 262.109 C 310.963 262.109,310.769 262.476,310.651 262.924 M309.682 265.495 C 309.778 265.996,309.904 266.406,309.961 266.406 C 310.018 266.406,310.144 265.996,310.239 265.495 C 310.341 264.964,310.225 264.583,309.961 264.583 C 309.697 264.583,309.581 264.964,309.682 265.495 M185.832 271.130 C 185.451 271.351,185.253 271.716,185.392 271.941 C 185.549 272.194,185.367 272.264,184.912 272.124 C 184.065 271.864,182.085 273.183,182.728 273.581 C 182.955 273.721,183.418 273.557,183.758 273.218 C 184.097 272.878,184.375 272.707,184.375 272.837 C 184.375 272.968,184.731 272.884,185.167 272.650 C 185.605 272.416,185.838 272.031,185.689 271.789 C 185.519 271.514,185.635 271.435,186.004 271.576 C 186.352 271.710,186.589 271.579,186.589 271.252 C 186.589 270.950,186.574 270.708,186.556 270.715 C 186.538 270.722,186.212 270.908,185.832 271.130 M271.330 272.887 C 270.746 274.409,271.939 274.445,272.680 272.927 C 273.048 272.176,272.997 272.190,272.267 273.047 C 271.460 273.995,271.443 273.998,271.682 273.145 C 271.962 272.144,271.691 271.945,271.330 272.887 M179.199 274.634 C 176.715 275.917,176.619 276.004,177.706 276.004 C 178.120 276.004,178.373 275.867,178.269 275.698 C 178.165 275.530,178.485 275.435,178.981 275.489 C 179.573 275.553,179.844 275.402,179.769 275.050 C 179.697 274.708,179.874 274.598,180.257 274.745 C 180.589 274.872,180.859 274.795,180.859 274.574 C 180.859 274.353,181.062 274.298,181.310 274.451 C 181.590 274.624,181.655 274.559,181.483 274.279 C 181.111 273.678,181.735 273.703,182.423 274.316 C 182.888 274.732,182.893 274.703,182.453 274.121 C 181.803 273.262,181.883 273.249,179.199 274.634 M269.955 275.094 C 269.436 275.929,269.445 275.945,270.128 275.391 C 270.787 274.855,270.825 274.868,270.572 275.544 C 270.336 276.171,270.384 276.208,270.889 275.789 C 271.525 275.261,271.725 274.414,271.127 274.784 C 270.931 274.906,270.710 274.826,270.638 274.608 C 270.565 274.390,270.258 274.608,269.955 275.094 M305.225 276.270 C 305.199 276.968,305.256 277.229,305.353 276.851 C 305.449 276.472,305.708 276.274,305.928 276.410 C 306.168 276.558,306.151 276.325,305.885 275.828 C 305.309 274.753,305.282 274.771,305.225 276.270 M175.391 276.563 C 174.961 276.992,174.609 277.139,174.609 276.888 C 174.609 276.637,174.504 276.538,174.375 276.667 C 173.965 277.076,174.611 277.709,175.206 277.481 C 175.520 277.361,175.668 277.086,175.535 276.870 C 175.385 276.629,175.648 276.568,176.221 276.712 C 176.731 276.841,176.928 276.845,176.658 276.721 C 176.388 276.597,176.266 276.335,176.388 276.139 C 176.777 275.510,176.197 275.756,175.391 276.563 M161.453 281.388 C 157.567 282.720,157.121 282.971,157.847 283.420 C 158.171 283.620,158.223 283.551,158.010 283.207 C 157.768 282.815,157.955 282.759,158.828 282.963 C 159.711 283.169,159.832 283.131,159.375 282.793 C 158.917 282.453,159.045 282.411,159.961 282.597 C 160.879 282.784,161.006 282.742,160.547 282.401 C 160.092 282.063,160.268 282.017,161.328 282.193 C 162.367 282.366,162.555 282.320,162.109 281.999 C 161.659 281.675,161.795 281.633,162.695 281.816 C 163.614 282.003,163.741 281.961,163.281 281.619 C 162.803 281.262,162.856 281.218,163.575 281.375 C 164.058 281.481,164.365 281.423,164.256 281.247 C 164.147 281.070,164.542 280.749,165.134 280.533 C 167.802 279.559,164.662 280.288,161.453 281.388 M303.119 283.217 C 302.755 284.096,302.528 284.287,302.291 283.913 C 302.066 283.557,301.963 283.542,301.959 283.864 C 301.946 284.889,302.738 284.720,303.332 283.570 C 303.680 282.899,303.887 282.272,303.792 282.178 C 303.698 282.083,303.395 282.551,303.119 283.217 M156.103 283.125 C 155.997 283.297,156.294 283.677,156.764 283.969 C 157.514 284.436,157.559 284.430,157.132 283.914 C 156.866 283.591,156.763 283.211,156.904 283.070 C 157.046 282.928,156.967 282.813,156.729 282.813 C 156.491 282.813,156.209 282.953,156.103 283.125 M153.548 283.734 C 153.638 283.811,154.238 283.992,154.883 284.137 C 155.739 284.328,155.897 284.292,155.469 284.002 C 154.941 283.645,153.156 283.396,153.548 283.734 M301.142 284.863 C 300.894 285.673,300.926 286.285,301.206 286.112 C 301.671 285.824,301.652 286.366,301.172 287.109 C 300.835 287.630,300.791 287.630,300.775 287.109 C 300.761 286.647,300.673 286.668,300.359 287.207 C 300.128 287.604,300.101 288.140,300.294 288.486 C 300.557 288.955,300.771 288.781,301.304 287.663 C 301.777 286.671,301.860 286.100,301.579 285.762 C 301.359 285.497,301.294 285.164,301.436 285.023 C 301.577 284.881,301.576 284.766,301.432 284.766 C 301.289 284.766,301.158 284.810,301.142 284.863 M148.127 285.693 C 148.403 285.989,148.880 286.134,149.188 286.016 C 149.620 285.850,149.577 285.734,148.995 285.506 C 147.834 285.051,147.579 285.106,148.127 285.693 M144.073 286.217 C 144.657 286.328,144.906 286.587,144.771 286.939 C 144.598 287.389,144.697 287.403,145.311 287.019 C 146.222 286.451,145.620 285.925,144.141 285.997 C 143.184 286.043,143.183 286.047,144.073 286.217 M299.238 289.418 C 298.819 290.200,299.622 290.388,300.282 289.662 C 300.449 289.478,300.337 289.472,300.031 289.650 C 299.618 289.890,299.540 289.806,299.726 289.322 C 300.067 288.434,299.729 288.500,299.238 289.418 M222.005 291.680 C 222.005 292.349,222.447 292.324,223.029 291.624 C 223.410 291.164,223.358 291.070,222.751 291.116 C 222.341 291.147,222.005 291.401,222.005 291.680 M297.313 292.687 C 296.748 293.252,296.753 294.019,297.326 294.373 C 297.612 294.550,297.671 294.480,297.487 294.182 C 297.327 293.924,297.309 293.418,297.447 293.059 C 297.646 292.541,297.765 292.513,298.019 292.924 C 298.217 293.244,298.432 293.293,298.582 293.051 C 298.932 292.484,297.832 292.168,297.313 292.687 M218.377 294.385 C 216.539 295.689,216.378 295.916,217.802 295.193 C 218.462 294.857,219.231 294.308,219.510 293.971 C 220.176 293.169,219.997 293.234,218.377 294.385 M214.975 295.801 C 214.092 297.215,214.528 297.591,215.739 296.460 C 216.488 295.761,216.503 295.692,215.854 295.941 C 215.332 296.140,215.191 296.089,215.389 295.770 C 215.544 295.518,215.583 295.313,215.476 295.313 C 215.368 295.313,215.143 295.532,214.975 295.801 M295.265 296.582 C 295.010 297.065,294.543 297.900,294.229 298.438 L 293.657 299.414 294.476 298.438 C 294.927 297.900,295.299 297.319,295.304 297.145 C 295.309 296.971,295.468 296.925,295.659 297.043 C 295.849 297.161,296.245 296.951,296.538 296.578 C 297.030 295.950,297.013 295.943,296.314 296.484 C 295.626 297.017,295.580 297.008,295.813 296.387 C 296.178 295.412,295.816 295.541,295.265 296.582 M213.508 297.606 C 213.292 297.955,211.060 299.219,210.659 299.219 C 210.572 299.219,210.626 299.016,210.779 298.768 C 210.954 298.486,210.886 298.423,210.601 298.599 C 210.349 298.755,210.259 299.069,210.400 299.296 C 210.547 299.535,210.426 299.632,210.113 299.526 C 209.659 299.372,206.641 300.627,206.641 300.970 C 206.641 301.257,208.939 300.920,209.418 300.563 C 209.716 300.340,210.587 299.837,211.353 299.444 C 213.251 298.469,214.245 297.709,213.975 297.439 C 213.852 297.315,213.641 297.390,213.508 297.606 M205.599 302.232 C 205.599 302.508,205.724 302.734,205.877 302.734 C 206.029 302.734,206.342 302.508,206.571 302.232 C 206.884 301.855,206.815 301.730,206.293 301.730 C 205.911 301.730,205.599 301.956,205.599 302.232 M292.578 302.711 C 292.578 302.988,292.324 303.111,292.005 302.989 C 291.689 302.868,291.320 302.949,291.184 303.169 C 291.048 303.389,290.666 303.465,290.335 303.338 C 289.867 303.158,289.830 303.224,290.170 303.633 C 290.450 303.971,290.472 304.294,290.230 304.536 C 289.988 304.778,290.131 305.151,290.630 305.577 C 291.375 306.215,291.406 306.203,291.406 305.270 C 291.406 304.735,291.540 304.297,291.703 304.297 C 292.126 304.297,293.067 302.702,292.801 302.436 C 292.678 302.314,292.578 302.437,292.578 302.711 M291.251 304.359 C 290.541 305.371,290.409 305.039,291.047 303.847 C 291.280 303.413,291.561 303.150,291.673 303.262 C 291.785 303.374,291.595 303.867,291.251 304.359 M203.024 303.939 C 202.647 304.159,202.192 304.249,202.015 304.140 C 201.838 304.030,201.693 304.170,201.693 304.451 C 201.693 304.849,201.936 304.869,202.799 304.543 C 203.408 304.314,203.906 303.988,203.906 303.821 C 203.906 303.442,203.870 303.447,203.024 303.939 M197.502 306.707 C 197.684 307.001,197.582 307.086,197.214 306.945 C 196.851 306.806,196.625 306.985,196.591 307.438 C 196.541 308.098,196.591 308.105,197.272 307.521 C 197.912 306.973,197.993 306.250,197.415 306.250 C 197.307 306.250,197.347 306.456,197.502 306.707 M240.260 311.829 C 238.509 313.495,238.420 313.640,239.218 313.523 C 240.014 313.406,241.004 312.497,240.905 311.974 C 240.859 311.726,241.040 311.567,241.309 311.621 C 241.577 311.675,241.753 311.522,241.699 311.282 C 241.646 311.042,241.925 310.792,242.321 310.726 C 243.346 310.554,243.603 310.186,242.647 310.258 C 242.207 310.292,241.133 310.999,240.260 311.829 M236.094 315.403 C 234.402 316.883,233.025 319.252,234.631 317.918 C 234.915 317.683,235.068 317.360,234.970 317.202 C 234.724 316.805,236.615 315.213,237.191 315.333 C 237.449 315.386,237.670 315.254,237.684 315.039 C 237.697 314.824,237.847 314.429,238.017 314.160 C 238.529 313.355,238.170 313.587,236.094 315.403 M231.197 319.460 C 230.778 320.015,230.786 320.042,231.249 319.629 C 232.067 318.900,232.596 319.040,231.988 319.824 C 231.557 320.381,231.621 320.369,232.331 319.764 C 233.382 318.867,233.374 318.929,232.448 318.859 C 232.033 318.828,231.470 319.098,231.197 319.460 M228.343 321.692 C 227.926 322.008,227.794 322.266,228.050 322.266 C 228.810 322.266,229.080 322.099,229.156 321.582 C 229.243 320.991,229.277 320.986,228.343 321.692 M225.973 324.225 C 225.838 324.443,225.553 324.514,225.339 324.382 C 224.846 324.078,223.381 325.374,223.677 325.852 C 223.803 326.057,224.132 326.016,224.445 325.756 C 224.745 325.506,224.877 325.116,224.736 324.889 C 224.580 324.636,224.721 324.569,225.103 324.715 C 225.444 324.846,225.934 324.700,226.191 324.391 C 226.448 324.081,226.559 323.828,226.438 323.828 C 226.317 323.828,226.108 324.007,225.973 324.225 M221.929 326.302 C 221.575 326.729,221.626 326.968,222.163 327.390 C 222.795 327.886,222.806 327.871,222.287 327.211 C 221.794 326.585,221.794 326.510,222.287 326.623 C 222.597 326.694,222.909 326.582,222.979 326.374 C 223.184 325.761,222.422 325.708,221.929 326.302 M266.406 334.137 C 266.406 334.461,266.099 334.906,265.723 335.125 C 265.347 335.344,265.232 335.528,265.467 335.535 C 266.161 335.554,267.300 334.100,266.822 333.805 C 266.593 333.663,266.406 333.813,266.406 334.137 M258.594 342.965 C 258.057 343.384,257.330 343.638,256.980 343.531 C 256.601 343.415,256.235 343.618,256.078 344.031 C 255.875 344.564,255.921 344.620,256.274 344.269 C 256.528 344.017,256.934 343.885,257.177 343.976 C 257.419 344.067,258.145 343.708,258.789 343.179 C 260.173 342.041,260.010 341.863,258.594 342.965 M184.601 344.481 C 184.486 344.668,183.816 344.937,183.114 345.078 C 182.111 345.280,181.962 345.416,182.422 345.709 C 183.215 346.214,183.699 346.190,183.373 345.661 C 183.190 345.367,183.386 345.318,183.984 345.508 C 184.643 345.717,184.786 345.662,184.555 345.288 C 184.334 344.930,184.436 344.862,184.917 345.046 C 185.286 345.188,185.489 345.145,185.369 344.951 C 185.249 344.757,185.372 344.509,185.642 344.400 C 185.947 344.277,185.883 344.191,185.472 344.171 C 185.109 344.155,184.717 344.294,184.601 344.481 M179.785 346.162 C 178.310 346.562,178.224 346.708,179.297 346.988 C 179.768 347.111,179.982 347.035,179.834 346.797 C 179.683 346.551,179.893 346.497,180.387 346.654 C 180.825 346.793,181.290 346.736,181.419 346.527 C 181.789 345.928,181.163 345.788,179.785 346.162 M176.774 347.239 C 176.651 347.439,176.756 347.729,177.007 347.885 C 177.311 348.073,177.359 347.997,177.151 347.660 C 176.908 347.268,177.095 347.212,177.969 347.416 C 178.799 347.609,178.945 347.574,178.516 347.283 C 177.779 346.785,177.066 346.767,176.774 347.239 M174.094 347.784 L 172.601 348.242 173.995 348.672 C 175.216 349.048,175.329 349.029,174.905 348.518 C 174.490 348.018,174.560 347.974,175.394 348.211 C 176.053 348.399,176.195 348.370,175.835 348.120 C 175.385 347.808,175.385 347.718,175.835 347.539 C 176.813 347.150,175.605 347.320,174.094 347.784 M250.479 347.990 C 250.538 348.206,250.234 348.653,249.805 348.983 C 249.330 349.349,249.224 349.589,249.535 349.597 C 249.816 349.604,249.927 349.803,249.781 350.039 C 249.615 350.307,249.863 350.282,250.440 349.974 C 251.028 349.659,251.181 349.417,250.862 349.311 C 250.492 349.187,250.471 349.006,250.784 348.630 C 251.086 348.265,251.088 348.041,250.791 347.857 C 250.560 347.715,250.420 347.775,250.479 347.990 M168.164 349.206 C 166.660 349.593,165.693 349.933,166.016 349.960 C 166.338 349.988,167.041 350.100,167.578 350.209 C 168.368 350.369,168.409 350.343,167.795 350.074 C 167.200 349.813,167.562 349.637,169.455 349.265 C 170.786 349.003,171.875 348.710,171.875 348.613 C 171.875 348.329,171.064 348.459,168.164 349.206 M157.813 350.781 C 155.860 351.192,157.863 351.209,160.156 350.801 C 161.742 350.519,161.780 350.489,160.547 350.491 C 159.795 350.492,158.564 350.623,157.813 350.781 M156.980 352.087 C 157.219 352.375,157.290 352.736,157.137 352.889 C 156.985 353.041,157.197 353.037,157.609 352.879 C 158.051 352.709,158.166 352.527,157.888 352.434 C 157.629 352.348,157.516 352.116,157.638 351.920 C 157.759 351.723,157.563 351.563,157.202 351.563 C 156.697 351.563,156.645 351.684,156.980 352.087 M245.898 352.952 C 245.170 353.571,245.034 353.800,245.540 353.558 C 246.266 353.210,247.583 351.950,247.216 351.955 C 247.136 351.956,246.543 352.405,245.898 352.952 M242.452 354.381 C 242.844 355.151,243.232 355.716,243.314 355.638 C 243.658 355.309,243.652 353.530,243.308 353.743 C 243.103 353.870,242.666 353.750,242.337 353.478 C 241.869 353.089,241.893 353.284,242.452 354.381 M210.501 371.777 C 210.475 371.938,210.480 372.215,210.510 372.393 C 210.541 372.570,210.167 372.602,209.678 372.465 C 208.969 372.265,208.908 372.301,209.375 372.642 C 209.842 372.983,209.733 373.047,208.834 372.960 C 208.009 372.881,207.678 373.035,207.599 373.537 C 207.539 373.914,207.654 374.122,207.853 373.998 C 208.053 373.875,208.103 373.592,207.965 373.369 C 207.806 373.110,208.013 373.058,208.537 373.224 C 209.526 373.538,210.649 372.982,210.776 372.114 C 210.827 371.768,210.796 371.484,210.708 371.484 C 210.619 371.484,210.526 371.616,210.501 371.777 M202.587 375.469 C 202.743 375.721,202.509 375.762,201.945 375.583 C 201.169 375.337,201.126 375.376,201.603 375.891 C 202.014 376.334,202.341 376.380,202.930 376.077 C 204.026 375.513,204.026 375.513,203.140 375.281 C 202.657 375.155,202.439 375.229,202.587 375.469 M197.656 376.452 C 197.656 376.692,197.876 376.992,198.145 377.118 C 198.413 377.245,198.105 377.266,197.461 377.166 C 196.816 377.066,196.518 377.083,196.798 377.203 C 197.182 377.369,197.134 377.555,196.603 377.961 C 196.061 378.376,196.326 378.358,197.753 377.885 C 199.759 377.221,200.274 376.778,199.555 376.334 C 199.270 376.157,199.203 376.220,199.377 376.502 C 199.747 377.101,198.727 377.087,198.125 376.484 C 197.799 376.159,197.656 376.149,197.656 376.452 M192.681 378.408 C 193.059 378.500,193.276 378.726,193.161 378.911 C 192.984 379.197,195.215 378.743,195.529 378.429 C 195.590 378.368,194.819 378.301,193.816 378.280 C 192.813 378.259,192.302 378.317,192.681 378.408 M190.321 379.359 C 190.952 379.759,192.085 379.779,192.321 379.395 C 192.420 379.233,191.898 379.088,191.161 379.072 C 190.336 379.053,190.014 379.164,190.321 379.359 " stroke="none" fill="#1890af" fill-rule="evenodd"/><path id="path4" d="M250.006 142.053 C 250.003 142.302,249.680 142.421,249.289 142.319 C 248.898 142.217,248.327 142.437,248.020 142.809 C 247.504 143.433,247.526 143.445,248.302 142.961 C 249.024 142.511,249.291 142.536,250.209 143.137 C 250.949 143.622,251.130 143.925,250.800 144.129 C 250.471 144.332,250.567 144.486,251.110 144.628 C 251.701 144.783,251.837 144.684,251.662 144.228 C 251.491 143.781,251.575 143.711,251.984 143.962 C 252.405 144.221,252.386 144.071,251.905 143.343 C 251.557 142.815,251.137 142.442,250.973 142.514 C 250.808 142.586,250.524 142.410,250.343 142.123 C 250.131 141.790,250.010 141.765,250.006 142.053 M248.047 144.359 C 248.047 144.694,247.873 144.861,247.662 144.730 C 247.414 144.577,247.400 144.812,247.624 145.390 C 247.815 145.885,248.164 146.245,248.400 146.191 C 248.635 146.138,248.828 146.270,248.828 146.484 C 248.828 146.699,248.664 146.875,248.462 146.875 C 248.042 146.875,249.659 150.758,250.085 150.772 C 250.240 150.777,250.267 150.474,250.146 150.098 C 249.961 149.522,249.992 149.506,250.345 150.000 C 250.575 150.322,250.687 150.850,250.594 151.172 C 250.501 151.494,250.675 152.197,250.980 152.734 C 251.285 153.271,251.541 153.558,251.549 153.370 C 251.556 153.183,251.828 153.250,252.153 153.520 C 252.600 153.890,252.637 154.139,252.305 154.539 C 252.063 154.830,251.986 155.378,252.133 155.757 C 252.369 156.364,252.462 156.330,252.926 155.470 C 253.249 154.869,253.315 154.330,253.096 154.067 C 252.901 153.832,252.843 153.538,252.967 153.414 C 253.090 153.290,252.825 152.992,252.377 152.752 C 251.929 152.512,251.560 152.454,251.557 152.623 C 251.549 153.021,250.795 151.859,250.787 151.437 C 250.784 151.260,251.057 151.392,251.395 151.730 C 251.733 152.068,252.185 152.344,252.400 152.344 C 252.614 152.344,252.512 152.066,252.173 151.726 C 251.833 151.387,251.672 150.920,251.815 150.689 C 251.957 150.459,251.897 150.379,251.682 150.512 C 251.217 150.799,250.198 149.065,250.523 148.540 C 250.646 148.340,250.515 148.177,250.232 148.177 C 249.918 148.177,249.781 148.495,249.881 148.991 C 249.999 149.576,249.861 149.485,249.390 148.666 C 248.783 147.610,248.782 147.449,249.374 146.447 C 250.100 145.218,249.610 144.586,248.664 145.532 C 248.101 146.095,248.047 146.094,248.047 145.523 C 248.047 145.179,248.310 144.797,248.631 144.673 C 248.952 144.550,249.117 144.292,248.998 144.100 C 248.649 143.535,248.047 143.699,248.047 144.359 M252.607 145.863 C 252.480 146.194,252.630 147.075,252.942 147.820 C 253.253 148.565,253.405 149.493,253.280 149.881 C 253.109 150.407,253.147 150.453,253.427 150.060 C 253.715 149.659,253.903 149.820,254.225 150.744 C 254.708 152.129,255.253 152.400,254.890 151.074 C 254.668 150.259,254.684 150.250,255.114 150.942 C 255.477 151.525,255.467 151.867,255.070 152.504 C 254.596 153.265,254.610 153.281,255.267 152.737 C 255.921 152.197,255.952 152.226,255.702 153.128 C 255.480 153.926,255.508 153.980,255.854 153.429 C 256.184 152.903,255.968 152.004,254.865 149.327 C 253.296 145.518,252.945 144.980,252.607 145.863 M253.659 147.397 C 254.667 149.809,254.709 150.606,253.717 148.485 C 252.679 146.266,252.622 146.094,252.924 146.094 C 253.029 146.094,253.360 146.680,253.659 147.397 M296.094 148.712 C 296.416 148.830,297.190 149.387,297.814 149.951 C 298.438 150.515,298.807 150.713,298.634 150.391 C 297.967 149.150,297.112 148.439,296.326 148.468 C 295.762 148.490,295.690 148.566,296.094 148.712 M294.582 149.743 C 294.343 150.031,294.278 150.411,294.437 150.587 C 294.596 150.763,294.516 150.786,294.258 150.638 C 293.754 150.348,292.827 151.681,293.243 152.097 C 293.722 152.576,294.221 152.336,293.992 151.738 C 293.864 151.404,293.919 151.230,294.114 151.350 C 294.309 151.471,294.759 151.279,295.115 150.923 C 295.607 150.431,295.646 150.206,295.278 149.979 C 294.955 149.779,295.107 149.622,295.737 149.503 C 296.569 149.346,296.582 149.319,295.849 149.272 C 295.392 149.243,294.822 149.455,294.582 149.743 M296.875 150.391 C 296.875 150.605,297.051 150.781,297.266 150.781 C 297.480 150.781,297.656 150.967,297.656 151.195 C 297.656 151.422,297.437 151.477,297.168 151.315 C 296.832 151.113,296.846 151.226,297.212 151.678 C 297.663 152.235,297.658 152.367,297.179 152.551 C 296.869 152.670,296.615 153.016,296.615 153.320 C 296.615 153.624,296.784 153.767,296.991 153.639 C 297.198 153.512,297.286 153.651,297.186 153.950 C 297.087 154.248,296.809 154.492,296.569 154.492 C 296.329 154.492,295.904 154.747,295.625 155.059 C 295.187 155.549,295.211 155.556,295.801 155.109 C 296.177 154.825,296.484 154.754,296.484 154.952 C 296.484 155.523,295.651 156.205,295.167 156.029 C 294.925 155.942,294.159 156.843,293.465 158.031 C 292.771 159.220,292.398 160.072,292.636 159.925 C 292.897 159.764,292.995 159.873,292.881 160.200 C 292.777 160.498,292.359 160.694,291.952 160.635 C 291.243 160.532,291.242 160.546,291.924 160.964 C 292.316 161.203,292.668 161.340,292.706 161.266 C 292.745 161.193,293.171 160.569,293.654 159.879 C 294.620 158.499,294.766 158.012,294.090 158.430 C 293.821 158.596,293.722 158.491,293.838 158.160 C 293.941 157.861,294.331 157.672,294.704 157.740 C 295.230 157.835,295.323 157.681,295.122 157.046 C 294.951 156.509,295.023 156.267,295.332 156.338 C 296.453 156.595,298.439 152.967,298.016 151.436 C 297.658 150.140,296.875 149.422,296.875 150.391 M292.533 152.559 C 292.508 152.763,292.464 153.193,292.435 153.515 C 292.406 153.836,292.163 154.100,291.895 154.101 C 291.381 154.102,288.672 157.670,288.672 158.347 C 288.672 158.565,288.950 158.402,289.290 157.985 C 289.817 157.337,289.876 157.326,289.693 157.910 C 289.312 159.120,290.018 158.613,290.679 157.202 C 291.159 156.177,291.183 155.949,290.777 156.286 C 290.119 156.832,290.048 156.202,290.694 155.556 C 291.040 155.210,291.287 155.207,291.692 155.544 C 291.989 155.790,292.201 155.830,292.163 155.633 C 291.996 154.753,292.221 154.270,292.676 154.532 C 292.944 154.686,293.034 154.669,292.874 154.493 C 292.715 154.317,292.787 153.930,293.034 153.633 C 293.372 153.225,293.371 152.980,293.030 152.640 C 292.782 152.391,292.558 152.354,292.533 152.559 M256.856 155.273 C 257.038 156.166,256.995 156.306,256.678 155.859 C 256.139 155.101,256.144 155.437,256.692 157.011 C 257.015 157.936,257.224 158.136,257.467 157.752 C 257.734 157.331,257.802 157.347,257.807 157.832 C 257.810 158.165,257.602 158.648,257.344 158.906 C 257.018 159.232,257.008 159.375,257.311 159.375 C 257.551 159.375,257.852 159.155,257.980 158.887 C 258.107 158.618,258.138 158.794,258.049 159.278 C 257.959 159.762,258.045 160.059,258.240 159.938 C 258.434 159.818,258.594 159.935,258.594 160.198 C 258.594 160.462,258.700 160.571,258.830 160.440 C 258.961 160.310,258.757 159.392,258.379 158.401 C 257.884 157.107,257.590 156.741,257.337 157.107 C 257.108 157.437,257.061 157.204,257.202 156.445 C 257.322 155.801,257.240 155.010,257.019 154.688 C 256.720 154.252,256.678 154.402,256.856 155.273 M253.395 157.174 C 253.002 158.197,253.075 158.485,253.555 157.813 C 253.892 157.342,253.936 157.400,253.781 158.106 C 253.664 158.641,253.743 158.890,253.985 158.741 C 254.234 158.586,254.286 158.839,254.125 159.424 C 253.914 160.189,253.942 160.235,254.287 159.687 C 254.592 159.203,254.564 158.676,254.185 157.747 C 253.751 156.684,253.619 156.588,253.395 157.174 M254.480 160.586 C 254.336 161.038,254.403 161.590,254.627 161.814 C 254.910 162.097,254.971 161.936,254.827 161.287 C 254.656 160.514,254.700 160.453,255.081 160.938 C 255.481 161.445,255.514 161.436,255.332 160.865 C 255.217 160.503,255.332 160.121,255.588 160.017 C 255.851 159.910,255.767 159.814,255.397 159.796 C 255.036 159.780,254.623 160.135,254.480 160.586 M287.410 160.645 C 286.433 162.151,285.844 163.385,286.210 163.159 C 286.403 163.040,286.816 163.104,287.128 163.301 C 287.607 163.604,287.595 163.661,287.054 163.666 C 286.701 163.669,286.310 163.936,286.186 164.259 C 285.992 164.766,286.090 164.762,286.904 164.228 C 287.698 163.708,287.789 163.456,287.479 162.639 C 286.979 161.325,287.012 161.152,287.662 161.691 C 288.104 162.058,288.267 161.989,288.470 161.349 C 288.610 160.908,288.932 160.544,289.186 160.541 C 289.459 160.537,289.409 160.380,289.063 160.156 C 288.221 159.612,288.047 159.664,287.410 160.645 M258.379 162.303 C 258.920 164.435,259.454 165.065,259.183 163.253 L 258.984 161.914 259.385 163.086 C 259.606 163.730,260.226 166.279,260.764 168.750 C 261.825 173.625,262.228 174.919,261.918 172.461 C 261.619 170.080,261.361 168.871,260.327 164.982 C 259.803 163.015,259.363 161.257,259.348 161.074 C 259.332 160.892,259.169 161.094,258.984 161.523 C 258.711 162.160,258.644 162.183,258.621 161.644 C 258.606 161.281,258.447 160.893,258.268 160.782 C 258.089 160.671,258.139 161.356,258.379 162.303 M255.442 162.012 C 254.837 162.716,255.830 167.347,256.453 166.724 C 256.555 166.622,256.363 165.730,256.026 164.741 C 255.558 163.369,255.516 162.752,255.845 162.136 C 256.374 161.148,256.224 161.102,255.442 162.012 M290.816 161.725 C 290.681 161.943,290.363 161.998,290.110 161.845 C 289.797 161.658,289.808 161.765,290.142 162.178 C 290.543 162.674,290.525 162.878,290.044 163.277 C 289.719 163.547,289.453 164.020,289.453 164.329 C 289.453 164.637,289.296 164.793,289.103 164.674 C 288.566 164.342,288.284 165.472,288.781 165.968 C 289.333 166.520,289.844 166.532,289.844 165.993 C 289.844 165.765,289.680 165.680,289.480 165.804 C 289.280 165.927,289.006 165.850,288.871 165.631 C 288.736 165.413,288.812 165.212,289.039 165.186 C 289.267 165.159,289.627 165.115,289.839 165.088 C 290.432 165.013,292.256 162.146,291.988 161.712 C 291.681 161.215,291.128 161.221,290.816 161.725 M290.971 163.277 C 290.490 164.134,290.025 164.764,289.938 164.678 C 289.852 164.592,290.079 164.066,290.443 163.510 C 290.808 162.955,290.953 162.497,290.768 162.494 C 290.473 162.489,291.403 161.740,291.724 161.725 C 291.792 161.721,291.453 162.420,290.971 163.277 M255.859 163.014 C 255.859 163.107,256.131 163.952,256.463 164.892 C 256.795 165.832,256.984 166.953,256.884 167.383 C 256.783 167.813,257.198 170.098,257.805 172.461 C 258.412 174.824,258.925 176.373,258.946 175.902 C 258.990 174.914,259.615 174.371,259.875 175.095 C 259.972 175.365,260.018 174.971,259.978 174.219 C 259.934 173.406,259.717 172.891,259.444 172.949 C 259.191 173.003,258.982 172.827,258.978 172.559 C 258.974 172.228,258.839 172.259,258.559 172.656 C 258.250 173.093,258.199 172.844,258.360 171.680 C 258.509 170.595,258.470 170.356,258.230 170.898 C 257.989 171.444,257.912 171.008,257.977 169.452 C 258.027 168.227,257.950 167.298,257.805 167.388 C 257.659 167.478,257.326 166.593,257.064 165.423 C 256.692 163.760,255.859 162.095,255.859 163.014 M285.171 164.425 C 284.729 165.252,285.031 166.530,285.588 166.186 C 285.780 166.067,285.938 165.794,285.938 165.579 C 285.938 165.364,285.762 165.297,285.547 165.430 C 285.045 165.740,285.050 165.381,285.561 164.427 C 285.783 164.012,285.877 163.672,285.770 163.672 C 285.662 163.672,285.393 164.011,285.171 164.425 M258.724 165.868 C 258.724 166.145,258.889 166.270,259.091 166.145 C 259.301 166.016,259.354 166.247,259.216 166.683 C 259.046 167.219,259.155 167.448,259.581 167.448 C 259.946 167.448,260.105 167.226,259.978 166.895 C 259.861 166.591,259.766 166.122,259.766 165.853 C 259.766 165.585,259.531 165.365,259.245 165.365 C 258.958 165.365,258.724 165.591,258.724 165.868 M284.201 166.371 C 284.081 166.566,284.092 167.013,284.226 167.364 C 284.387 167.782,284.287 167.962,283.935 167.887 C 283.586 167.813,283.431 168.081,283.491 168.651 C 283.543 169.138,283.388 169.485,283.143 169.432 C 282.317 169.252,280.652 173.016,281.182 173.864 C 281.465 174.318,281.493 174.609,281.253 174.609 C 281.037 174.609,280.859 174.785,280.859 175.000 C 280.859 175.215,281.022 175.391,281.220 175.391 C 281.700 175.391,282.545 172.780,282.229 172.270 C 281.680 171.381,282.431 170.181,283.044 170.969 C 283.572 171.649,283.584 171.648,283.333 170.932 C 283.153 170.419,283.212 170.272,283.523 170.464 C 283.819 170.647,283.895 170.534,283.743 170.137 C 283.608 169.785,283.719 169.531,284.008 169.531 C 284.281 169.531,284.395 169.421,284.260 169.286 C 284.126 169.152,284.287 168.517,284.618 167.876 C 285.027 167.086,285.063 166.808,284.732 167.013 C 284.388 167.226,284.316 167.122,284.492 166.666 C 284.758 165.973,284.567 165.779,284.201 166.371 M287.552 166.700 C 287.324 167.126,287.248 167.586,287.384 167.722 C 287.519 167.858,287.396 167.969,287.109 167.969 C 286.823 167.969,286.702 168.083,286.842 168.222 C 287.326 168.706,285.430 171.523,284.785 171.278 C 284.327 171.103,284.289 171.158,284.630 171.501 C 285.081 171.956,284.148 173.584,283.622 173.260 C 283.499 173.185,283.377 173.739,283.350 174.493 C 283.320 175.334,283.424 175.666,283.617 175.353 C 283.791 175.072,283.879 174.746,283.813 174.628 C 283.747 174.510,284.023 174.076,284.425 173.662 C 285.496 172.560,285.299 173.279,283.638 176.522 C 282.626 178.499,282.084 179.217,281.922 178.794 C 281.791 178.454,281.894 178.090,282.151 177.986 C 282.407 177.881,282.298 177.782,281.907 177.765 C 281.354 177.741,281.256 177.920,281.464 178.575 C 281.679 179.253,281.604 179.367,281.074 179.163 C 280.546 178.960,280.469 179.073,280.680 179.739 C 280.856 180.291,280.801 180.479,280.515 180.302 C 280.258 180.143,280.170 180.254,280.295 180.579 C 280.598 181.369,281.567 181.250,281.358 180.448 C 281.261 180.078,281.403 179.639,281.673 179.472 C 282.031 179.251,282.087 179.371,281.879 179.916 C 281.263 181.533,282.426 179.773,283.958 176.770 C 284.896 174.931,285.454 173.369,285.321 172.952 C 285.175 172.491,285.277 172.283,285.615 172.353 C 285.943 172.421,286.099 172.139,286.040 171.584 C 285.989 171.101,286.144 170.750,286.383 170.802 C 287.254 170.994,289.183 167.141,288.538 166.496 C 288.037 165.994,287.916 166.019,287.552 166.700 M287.873 168.497 C 286.876 170.187,286.449 170.405,287.279 168.800 C 287.598 168.182,287.749 167.567,287.615 167.432 C 287.480 167.298,287.585 167.188,287.849 167.188 C 288.118 167.188,288.207 166.974,288.052 166.699 C 287.847 166.337,287.897 166.323,288.245 166.642 C 288.606 166.974,288.520 167.400,287.873 168.497 M257.758 169.531 C 257.758 169.901,257.633 169.828,257.422 169.336 C 257.237 168.906,257.086 168.291,257.086 167.969 C 257.086 167.599,257.210 167.672,257.422 168.164 C 257.607 168.594,257.758 169.209,257.758 169.531 M260.089 169.617 C 259.956 170.289,260.026 170.589,260.279 170.432 C 260.522 170.282,260.582 170.439,260.430 170.834 C 260.293 171.192,260.351 171.484,260.559 171.484 C 260.984 171.484,260.990 170.963,260.580 169.531 L 260.300 168.555 260.089 169.617 M260.515 172.515 C 260.723 172.621,260.797 172.959,260.678 173.267 C 260.560 173.576,260.671 173.828,260.924 173.828 C 261.536 173.828,261.273 172.554,260.635 172.425 C 260.361 172.370,260.307 172.410,260.515 172.515 M259.766 173.503 C 259.766 173.682,259.603 173.828,259.404 173.828 C 259.205 173.828,258.961 174.136,258.863 174.512 C 258.746 174.960,258.669 174.848,258.639 174.186 C 258.610 173.529,258.798 173.177,259.180 173.177 C 259.502 173.177,259.766 173.324,259.766 173.503 M261.953 175.684 C 262.276 177.733,262.561 177.839,262.445 175.867 C 262.391 174.961,262.207 174.219,262.035 174.219 C 261.863 174.219,261.827 174.878,261.953 175.684 M280.078 174.681 C 280.078 174.936,279.744 175.859,279.336 176.732 C 278.364 178.811,277.605 181.251,277.854 181.499 C 277.962 181.608,278.180 181.113,278.338 180.399 C 278.543 179.477,278.695 179.288,278.864 179.745 C 279.066 180.292,279.176 180.307,279.605 179.842 C 280.020 179.394,280.002 179.297,279.508 179.297 C 278.857 179.297,278.766 178.945,279.156 177.929 C 279.304 177.543,279.507 177.442,279.655 177.681 C 279.813 177.937,280.113 177.951,280.479 177.720 C 280.963 177.414,280.945 177.355,280.371 177.350 C 279.995 177.346,279.688 177.178,279.688 176.976 C 279.688 176.773,280.022 176.672,280.430 176.750 C 281.177 176.894,281.295 176.396,280.728 175.488 C 280.560 175.220,280.531 174.824,280.664 174.609 C 280.797 174.395,280.719 174.219,280.492 174.219 C 280.264 174.219,280.078 174.427,280.078 174.681 M261.196 176.734 C 261.053 177.108,260.719 177.235,260.302 177.075 C 259.852 176.903,259.729 176.968,259.920 177.277 C 260.330 177.940,261.205 177.837,261.491 177.093 C 261.626 176.740,261.667 176.380,261.581 176.294 C 261.495 176.208,261.322 176.406,261.196 176.734 M260.547 178.125 L 259.180 178.413 260.426 178.464 C 261.112 178.492,261.781 178.340,261.914 178.125 C 262.047 177.910,262.101 177.758,262.035 177.786 C 261.968 177.814,261.299 177.967,260.547 178.125 M279.297 182.107 C 279.297 182.277,279.644 182.364,280.068 182.299 C 281.230 182.122,281.355 181.797,280.260 181.797 C 279.730 181.797,279.297 181.936,279.297 182.107 M255.112 185.815 C 255.062 189.667,254.951 191.016,254.682 191.016 C 254.530 191.016,254.481 191.412,254.573 191.896 C 254.666 192.380,254.524 193.302,254.259 193.946 C 253.994 194.590,253.747 195.381,253.712 195.703 C 253.593 196.783,253.081 198.626,252.711 199.311 C 252.247 200.168,252.236 200.894,252.690 200.613 C 253.434 200.153,255.859 189.481,255.859 186.667 C 255.859 185.200,257.022 184.358,257.987 185.125 C 258.959 185.897,260.370 186.096,259.631 185.357 C 259.255 184.980,258.840 184.780,258.709 184.911 C 258.578 185.042,258.278 184.996,258.044 184.807 C 257.809 184.619,257.059 184.346,256.377 184.200 L 255.137 183.935 255.112 185.815 M260.938 185.845 C 260.938 186.057,261.444 186.332,262.064 186.456 C 262.683 186.580,263.694 186.796,264.310 186.937 C 265.387 187.184,265.399 187.171,264.628 186.598 C 263.634 185.858,260.938 185.308,260.938 185.845 M265.642 187.256 C 265.930 187.545,278.516 191.719,278.516 191.526 C 278.516 191.315,274.147 189.294,273.633 189.268 C 273.263 189.248,270.800 188.485,269.531 187.996 C 269.209 187.872,268.770 187.737,268.555 187.695 C 268.340 187.653,268.076 187.578,267.969 187.527 C 267.515 187.315,265.461 187.075,265.642 187.256 M278.906 191.839 C 278.906 192.076,279.159 192.174,279.467 192.056 C 279.775 191.938,280.083 191.994,280.151 192.181 C 280.218 192.367,280.801 192.642,281.445 192.791 C 282.558 193.048,282.578 193.031,281.840 192.464 C 281.413 192.135,280.942 191.941,280.793 192.033 C 280.644 192.125,280.412 192.022,280.277 191.803 C 279.947 191.269,278.906 191.296,278.906 191.839 M283.188 194.020 C 283.180 194.194,283.078 194.995,282.961 195.801 C 282.828 196.722,282.906 197.266,283.171 197.266 C 283.404 197.266,283.573 197.134,283.547 196.973 C 283.522 196.812,283.534 196.592,283.574 196.484 C 283.869 195.697,283.864 194.113,283.566 193.928 C 283.367 193.805,283.196 193.846,283.188 194.020 M282.692 197.949 C 282.600 198.110,282.407 198.945,282.265 199.805 C 282.122 200.664,281.904 201.873,281.781 202.490 C 281.626 203.266,281.693 203.529,281.996 203.342 C 282.237 203.193,282.333 202.907,282.210 202.707 C 282.086 202.507,282.160 202.344,282.375 202.344 C 282.589 202.344,282.757 202.036,282.748 201.660 C 282.723 200.560,283.065 198.587,283.364 198.103 C 283.516 197.857,283.464 197.656,283.249 197.656 C 283.034 197.656,282.783 197.788,282.692 197.949 M252.025 201.647 C 251.474 202.198,251.413 203.125,251.927 203.125 C 252.311 203.125,252.920 201.618,252.646 201.344 C 252.559 201.257,252.279 201.393,252.025 201.647 M251.123 203.711 C 251.096 203.818,251.044 204.038,251.006 204.199 C 250.604 205.930,248.417 211.032,247.931 211.372 C 247.743 211.503,247.602 211.767,247.618 211.958 C 247.674 212.633,247.208 213.672,246.849 213.672 C 246.648 213.672,246.521 213.804,246.565 213.965 C 246.739 214.601,241.919 222.656,241.364 222.656 C 241.202 222.656,240.948 223.052,240.801 223.535 C 240.455 224.672,238.481 227.445,236.621 229.406 C 235.815 230.256,235.156 231.020,235.156 231.104 C 235.156 231.437,232.809 233.972,228.830 237.937 C 226.532 240.226,224.755 242.203,224.882 242.330 C 225.392 242.840,233.426 234.361,238.711 227.734 C 242.680 222.757,248.343 212.887,250.701 206.836 C 251.120 205.762,251.592 204.575,251.750 204.199 C 251.923 203.787,251.865 203.516,251.604 203.516 C 251.366 203.516,251.150 203.604,251.123 203.711 M280.498 207.473 C 280.002 209.435,279.176 212.364,278.663 213.981 C 278.149 215.599,277.795 216.988,277.876 217.069 C 278.049 217.241,279.077 214.381,279.941 211.328 C 280.276 210.146,280.646 208.916,280.763 208.594 C 281.236 207.301,281.820 203.906,281.571 203.906 C 281.477 203.906,280.995 205.511,280.498 207.473 M276.195 220.996 C 272.499 230.846,263.382 248.462,259.667 252.930 C 259.279 253.396,252.459 262.580,251.425 264.027 L 250.703 265.039 251.621 264.036 C 252.126 263.484,253.154 262.279,253.906 261.358 C 255.165 259.815,256.252 258.514,257.513 257.039 C 257.785 256.721,257.971 256.349,257.927 256.211 C 257.883 256.073,258.454 255.251,259.197 254.383 C 259.939 253.515,260.547 252.614,260.547 252.379 C 260.547 252.145,260.752 251.953,261.003 251.953 C 261.253 251.953,261.357 251.851,261.232 251.727 C 261.010 251.504,265.014 244.932,266.118 243.709 C 266.429 243.364,266.802 242.610,266.947 242.033 C 267.092 241.456,267.381 241.089,267.590 241.218 C 267.798 241.347,267.969 241.180,267.969 240.847 C 267.969 240.514,268.973 238.263,270.200 235.844 C 271.427 233.425,272.438 231.328,272.446 231.185 C 272.454 231.042,272.608 230.778,272.788 230.599 C 273.173 230.217,274.282 227.792,274.449 226.970 C 274.512 226.657,274.733 226.042,274.939 225.603 C 275.408 224.605,277.118 220.220,277.191 219.824 C 277.221 219.663,277.281 219.487,277.324 219.434 C 277.476 219.243,277.727 217.578,277.604 217.578 C 277.535 217.578,276.901 219.116,276.195 220.996 M289.453 226.172 C 288.993 226.469,288.982 226.552,289.403 226.557 C 289.777 226.561,289.823 226.711,289.555 227.051 C 288.951 227.817,288.629 229.615,289.050 229.875 C 289.463 230.130,289.967 228.616,289.770 227.709 C 289.432 226.153,291.215 227.617,294.900 231.920 C 297.146 234.545,299.061 236.616,299.155 236.522 C 299.402 236.275,298.315 234.714,296.710 233.013 C 295.941 232.198,295.310 231.424,295.306 231.293 C 295.294 230.819,291.535 226.953,291.086 226.953 C 290.832 226.953,290.625 226.689,290.625 226.367 C 290.625 225.692,290.284 225.635,289.453 226.172 M288.573 231.461 C 288.454 232.087,288.545 232.400,288.821 232.309 C 289.363 232.131,289.647 230.469,289.135 230.469 C 288.930 230.469,288.678 230.915,288.573 231.461 M288.383 233.257 C 288.036 233.604,288.024 233.870,288.338 234.249 C 288.653 234.628,288.645 234.766,288.306 234.766 C 288.052 234.766,287.953 234.941,288.086 235.156 C 288.219 235.371,288.176 235.547,287.992 235.547 C 287.807 235.547,287.635 235.942,287.608 236.426 C 287.523 238.000,287.053 240.031,286.686 240.410 C 286.489 240.614,286.328 241.273,286.328 241.875 C 286.328 242.477,286.158 242.969,285.950 242.969 C 285.742 242.969,285.666 243.215,285.781 243.515 C 285.896 243.816,285.803 244.178,285.574 244.319 C 285.344 244.461,285.156 244.948,285.156 245.401 C 285.156 246.264,285.548 246.153,285.685 245.251 C 285.728 244.962,285.868 244.551,285.994 244.336 C 286.324 243.774,287.706 239.304,288.487 236.273 C 289.212 233.459,289.178 232.463,288.383 233.257 M301.203 239.117 C 301.186 239.469,301.518 240.172,301.940 240.679 C 302.363 241.187,302.714 241.382,302.721 241.113 C 302.729 240.845,302.573 240.625,302.376 240.625 C 302.179 240.625,301.842 240.142,301.626 239.551 C 301.410 238.960,301.220 238.765,301.203 239.117 M303.015 241.646 C 302.798 241.864,306.456 247.656,306.811 247.656 C 306.892 247.656,306.866 247.305,306.754 246.875 C 306.641 246.445,306.394 246.094,306.204 246.094 C 306.015 246.094,305.859 245.911,305.859 245.687 C 305.859 245.463,305.520 244.916,305.105 244.471 C 304.691 244.025,304.105 243.153,303.805 242.532 C 303.504 241.911,303.149 241.513,303.015 241.646 M221.802 244.529 C 220.795 245.560,219.872 246.304,219.751 246.183 C 219.630 246.062,219.531 246.140,219.531 246.357 C 219.531 246.573,219.048 246.977,218.457 247.254 C 217.753 247.585,217.567 247.825,217.916 247.950 C 218.210 248.056,218.561 247.988,218.698 247.800 C 218.834 247.612,219.658 246.976,220.529 246.386 C 222.568 245.004,224.941 242.566,224.198 242.617 C 223.887 242.638,222.809 243.499,221.802 244.529 M284.142 248.438 C 283.755 249.512,283.269 250.391,283.061 250.391 C 282.853 250.391,282.792 250.500,282.925 250.634 C 283.059 250.767,282.734 251.733,282.204 252.779 C 281.673 253.826,281.237 254.727,281.234 254.783 C 281.192 255.511,280.685 256.641,280.400 256.641 C 280.198 256.641,280.141 256.816,280.273 257.031 C 280.406 257.246,280.329 257.422,280.101 257.422 C 279.874 257.422,279.715 257.554,279.750 257.715 C 279.844 258.159,279.210 259.505,278.632 260.090 C 278.349 260.376,278.218 260.771,278.340 260.969 C 278.462 261.167,278.365 261.328,278.125 261.328 C 277.885 261.328,277.797 261.504,277.930 261.719 C 278.062 261.934,277.956 262.109,277.692 262.109 C 277.429 262.109,277.322 262.218,277.455 262.351 C 277.588 262.484,277.440 262.850,277.126 263.164 C 276.812 263.478,276.655 263.896,276.777 264.094 C 276.899 264.292,276.816 264.453,276.593 264.453 C 276.370 264.453,276.076 264.893,275.942 265.430 C 275.807 265.967,275.540 266.406,275.348 266.406 C 275.157 266.406,275.035 266.538,275.077 266.699 C 275.218 267.232,274.563 268.750,274.192 268.750 C 273.992 268.750,273.828 269.014,273.828 269.336 C 273.828 269.658,273.642 269.922,273.414 269.922 C 273.187 269.922,273.095 270.074,273.210 270.260 C 273.325 270.446,273.087 270.899,272.682 271.266 C 272.277 271.632,271.838 272.359,271.707 272.880 C 271.577 273.402,271.297 273.828,271.086 273.828 C 270.876 273.828,270.703 274.053,270.703 274.327 C 270.703 274.601,270.146 275.436,269.464 276.182 C 268.783 276.929,268.299 277.577,268.390 277.624 C 268.481 277.671,268.237 278.080,267.849 278.534 C 267.460 278.987,267.199 279.526,267.267 279.731 C 267.471 280.342,271.522 274.520,275.119 268.451 C 278.360 262.981,285.887 246.484,285.141 246.484 C 284.978 246.484,284.528 247.363,284.142 248.438 M307.306 247.902 C 307.171 248.038,307.869 249.664,308.858 251.516 C 310.873 255.290,311.328 255.929,311.328 254.984 C 311.328 254.631,311.149 254.233,310.931 254.098 C 310.713 253.963,310.635 253.689,310.759 253.489 C 310.882 253.289,310.768 253.125,310.505 253.125 C 310.241 253.125,310.142 253.009,310.285 252.866 C 310.427 252.724,310.112 252.043,309.585 251.352 C 309.059 250.662,308.752 249.959,308.904 249.790 C 309.055 249.622,308.973 249.603,308.720 249.748 C 308.290 249.994,307.551 248.644,307.735 247.949 C 307.830 247.592,307.637 247.571,307.306 247.902 M311.011 258.105 C 311.700 260.858,305.676 277.324,299.727 288.948 C 298.355 291.629,297.453 293.820,297.667 293.952 C 298.043 294.184,298.202 293.888,298.073 293.200 C 298.036 293.005,298.235 292.703,298.515 292.531 C 298.794 292.358,299.045 292.034,299.072 291.811 C 299.099 291.588,299.143 291.220,299.170 290.993 C 299.197 290.765,299.395 290.688,299.609 290.820 C 299.961 291.037,300.169 290.525,300.046 289.746 C 300.021 289.585,300.186 289.453,300.414 289.453 C 300.641 289.453,300.726 289.289,300.603 289.089 C 300.329 288.646,301.571 285.938,302.049 285.938 C 302.236 285.938,302.281 285.762,302.148 285.547 C 302.016 285.332,302.122 285.156,302.386 285.156 C 302.649 285.156,302.755 285.047,302.621 284.913 C 302.487 284.779,302.755 283.944,303.217 283.057 C 303.679 282.171,304.099 281.199,304.151 280.898 C 304.203 280.598,304.407 280.246,304.605 280.117 C 304.999 279.860,306.068 276.935,305.939 276.465 C 305.895 276.304,306.035 276.172,306.250 276.172 C 306.465 276.172,306.641 275.979,306.641 275.743 C 306.641 275.507,306.922 274.672,307.266 273.887 C 307.611 273.103,308.040 272.109,308.222 271.680 C 308.403 271.250,308.880 269.534,309.283 267.866 C 309.686 266.198,310.122 264.939,310.252 265.069 C 310.382 265.200,310.436 264.982,310.371 264.587 C 310.307 264.191,310.494 263.277,310.788 262.556 C 311.082 261.835,311.226 261.088,311.107 260.896 C 310.988 260.704,311.049 260.547,311.242 260.547 C 311.434 260.547,311.615 259.932,311.644 259.180 C 311.672 258.428,311.525 257.813,311.316 257.813 C 311.108 257.813,310.971 257.944,311.011 258.105 M186.133 270.703 C 186.000 270.918,186.034 271.094,186.207 271.095 C 186.381 271.096,185.952 271.445,185.254 271.871 C 184.556 272.296,183.984 272.721,183.984 272.813 C 183.984 273.167,187.105 271.265,187.285 270.801 C 187.510 270.223,186.483 270.136,186.133 270.703 M181.934 273.661 C 180.473 274.453,180.562 274.783,182.031 274.023 C 182.676 273.690,183.203 273.334,183.203 273.232 C 183.203 272.981,183.161 272.995,181.934 273.661 M179.196 275.033 C 178.818 275.253,178.308 275.308,178.062 275.156 C 177.765 274.973,177.721 275.054,177.933 275.397 C 178.156 275.757,178.081 275.848,177.688 275.697 C 177.377 275.578,176.689 275.835,176.159 276.269 L 175.195 277.057 176.172 276.760 C 177.445 276.372,180.780 274.648,180.273 274.639 C 180.059 274.636,179.574 274.813,179.196 275.033 M174.609 276.876 C 174.609 277.120,174.350 277.220,174.033 277.098 C 173.717 276.977,173.177 277.158,172.834 277.501 C 172.491 277.844,171.520 278.235,170.675 278.370 C 169.831 278.505,169.141 278.769,169.141 278.956 C 169.141 279.144,168.799 279.297,168.382 279.297 C 167.965 279.297,167.508 279.485,167.366 279.714 C 167.225 279.944,166.863 280.037,166.562 279.922 C 166.262 279.806,166.016 279.864,166.016 280.049 C 166.016 280.341,159.214 282.729,157.753 282.950 C 157.463 282.994,156.995 283.174,156.712 283.351 C 156.429 283.527,156.094 283.568,155.967 283.441 C 155.840 283.314,155.544 283.367,155.309 283.560 C 155.075 283.752,154.268 283.961,153.516 284.024 C 152.764 284.087,151.947 284.286,151.701 284.466 C 151.455 284.646,151.104 284.759,150.920 284.717 C 150.736 284.676,150.322 284.748,150.000 284.878 C 148.590 285.446,146.381 285.873,145.869 285.677 C 145.563 285.559,145.313 285.658,145.313 285.896 C 145.313 286.470,145.975 286.441,148.699 285.750 C 149.952 285.432,151.328 285.110,151.758 285.034 C 158.054 283.927,175.731 277.554,174.876 276.699 C 174.729 276.552,174.609 276.632,174.609 276.876 M140.551 286.769 C 140.329 286.903,139.772 286.917,139.312 286.798 C 138.563 286.606,138.533 286.653,139.026 287.254 C 139.408 287.718,139.701 287.799,139.983 287.517 C 140.207 287.293,141.015 287.092,141.777 287.070 C 142.540 287.049,143.604 286.886,144.141 286.709 C 144.871 286.468,144.592 286.404,143.036 286.455 C 141.891 286.493,140.773 286.634,140.551 286.769 M277.148 289.844 C 277.988 290.703,278.762 291.406,278.869 291.406 C 278.977 291.406,278.378 290.703,277.539 289.844 C 276.700 288.984,275.925 288.281,275.818 288.281 C 275.711 288.281,276.309 288.984,277.148 289.844 M221.875 291.406 C 221.338 291.826,221.097 292.174,221.339 292.179 C 221.581 292.184,222.008 291.912,222.288 291.574 C 222.568 291.237,223.117 291.045,223.508 291.147 C 223.900 291.250,224.121 291.174,224.001 290.979 C 223.660 290.428,222.941 290.573,221.875 291.406 M218.559 293.578 C 217.487 294.319,216.489 295.232,216.341 295.607 C 216.192 295.982,216.058 296.080,216.043 295.824 C 216.012 295.295,212.891 297.201,212.891 297.749 C 212.891 297.938,212.750 298.006,212.577 297.899 C 212.405 297.793,211.143 298.486,209.773 299.439 C 208.404 300.392,207.161 301.172,207.011 301.172 C 206.862 301.172,205.443 301.937,203.858 302.872 C 202.273 303.807,199.777 305.229,198.310 306.033 C 196.844 306.836,195.716 307.565,195.803 307.652 C 195.890 307.739,197.421 307.024,199.204 306.063 C 200.988 305.101,202.626 304.426,202.846 304.561 C 203.075 304.703,203.127 304.616,202.967 304.357 C 202.718 303.955,203.185 303.731,204.004 303.860 C 204.165 303.885,204.297 303.730,204.297 303.516 C 204.297 303.301,204.497 303.125,204.742 303.125 C 204.987 303.125,205.382 302.859,205.621 302.534 C 205.860 302.210,206.438 301.871,206.906 301.781 C 207.374 301.691,208.127 301.248,208.580 300.795 C 209.033 300.342,209.600 300.093,209.840 300.241 C 210.080 300.390,210.173 300.343,210.045 300.136 C 209.918 299.930,210.462 299.424,211.254 299.012 C 212.047 298.600,213.238 297.863,213.902 297.375 C 214.565 296.887,215.252 296.619,215.429 296.779 C 215.606 296.939,215.605 296.821,215.428 296.516 C 215.187 296.100,215.273 296.025,215.771 296.216 C 216.182 296.374,216.520 296.251,216.657 295.894 C 216.779 295.577,217.063 295.431,217.289 295.570 C 217.514 295.710,217.589 295.647,217.455 295.430 C 217.216 295.042,219.031 293.931,219.658 294.082 C 219.835 294.125,219.869 293.980,219.733 293.760 C 219.512 293.403,220.006 293.192,220.787 293.308 C 220.940 293.331,220.965 293.088,220.843 292.769 C 220.720 292.449,220.594 292.197,220.564 292.209 C 220.533 292.221,219.631 292.837,218.559 293.578 M296.077 295.735 C 295.622 296.627,294.187 299.014,292.889 301.039 C 291.590 303.064,290.637 304.830,290.772 304.964 C 290.906 305.099,291.016 305.029,291.016 304.811 C 291.016 304.592,291.503 303.903,292.098 303.281 C 293.208 302.118,293.359 301.863,293.359 301.149 C 293.359 300.921,293.562 300.861,293.810 301.014 C 294.090 301.187,294.155 301.121,293.983 300.842 C 293.829 300.594,293.890 300.391,294.118 300.391 C 294.345 300.391,294.531 300.202,294.531 299.972 C 294.531 299.742,294.795 299.290,295.117 298.968 C 295.439 298.645,295.703 298.064,295.703 297.676 C 295.703 297.288,295.976 296.744,296.310 296.467 C 297.225 295.708,297.723 294.619,297.282 294.346 C 297.074 294.218,296.533 294.843,296.077 295.735 M240.625 304.028 C 240.625 304.096,241.196 304.667,241.895 305.298 L 243.164 306.445 242.017 305.176 C 240.947 303.992,240.625 303.727,240.625 304.028 M244.263 307.568 C 244.421 307.980,244.298 308.317,243.939 308.455 C 243.620 308.577,243.359 308.922,243.359 309.221 C 243.359 309.521,243.224 309.722,243.058 309.668 C 242.892 309.614,242.057 310.361,241.202 311.328 C 239.495 313.260,240.136 312.855,243.037 310.169 C 244.951 308.396,245.287 307.694,244.465 307.186 C 244.156 306.994,244.090 307.118,244.263 307.568 M249.023 311.719 C 250.299 313.008,251.431 314.063,251.538 314.063 C 251.645 314.063,250.690 313.008,249.414 311.719 C 248.138 310.430,247.007 309.375,246.899 309.375 C 246.792 309.375,247.748 310.430,249.023 311.719 M237.828 314.355 C 237.116 314.946,236.122 315.781,235.618 316.211 C 235.115 316.641,234.585 316.995,234.441 316.997 C 234.297 317.000,233.605 317.569,232.903 318.260 C 232.201 318.952,231.103 319.789,230.462 320.121 C 229.821 320.452,229.297 320.894,229.297 321.104 C 229.297 321.313,229.077 321.440,228.809 321.387 C 228.540 321.333,228.364 321.509,228.418 321.777 C 228.472 322.046,228.279 322.266,227.989 322.266 C 227.700 322.266,227.058 322.617,226.563 323.047 C 226.067 323.477,225.484 323.828,225.266 323.828 C 225.048 323.828,224.986 323.944,225.128 324.086 C 225.378 324.336,223.768 325.690,223.500 325.455 C 223.426 325.391,223.158 325.624,222.903 325.972 C 222.474 326.558,221.699 326.849,220.362 326.923 C 219.938 326.947,219.924 327.071,220.298 327.521 C 220.925 328.277,229.941 321.765,238.086 314.671 C 239.930 313.065,239.709 312.794,237.828 314.355 M265.077 336.328 C 264.072 337.402,263.125 338.287,262.973 338.294 C 262.820 338.301,261.997 339.004,261.143 339.857 C 260.290 340.709,259.455 341.406,259.288 341.406 C 259.121 341.406,258.984 341.680,258.984 342.015 C 258.984 342.350,258.821 342.523,258.621 342.399 C 258.421 342.276,258.152 342.345,258.023 342.554 C 257.753 342.990,250.428 348.993,248.535 350.329 C 247.837 350.822,247.263 351.521,247.260 351.882 C 247.255 352.340,247.162 352.395,246.953 352.066 C 246.739 351.729,246.059 352.041,244.594 353.150 C 243.462 354.007,242.351 354.593,242.126 354.454 C 241.900 354.315,242.018 354.662,242.387 355.225 C 243.191 356.453,243.235 356.467,243.195 355.485 C 243.178 355.064,243.312 354.729,243.494 354.742 C 243.675 354.754,244.313 354.295,244.911 353.721 C 245.509 353.148,246.260 352.641,246.580 352.594 C 246.900 352.547,247.883 351.825,248.764 350.990 C 249.646 350.154,250.900 349.247,251.551 348.973 C 252.202 348.699,252.734 348.203,252.734 347.870 C 252.734 347.538,252.910 347.266,253.125 347.266 C 253.846 347.266,254.097 347.098,255.016 346.007 C 255.519 345.409,256.046 344.990,256.188 345.075 C 256.546 345.291,257.430 344.278,257.138 343.987 C 256.913 343.762,257.643 343.594,258.330 343.713 C 258.507 343.744,258.540 343.589,258.404 343.369 C 258.268 343.149,258.325 342.969,258.530 342.969 C 258.735 342.969,259.316 342.532,259.822 341.999 C 260.328 341.466,260.962 341.026,261.230 341.022 C 261.499 341.019,261.719 340.742,261.719 340.407 C 261.719 340.046,261.903 339.911,262.170 340.076 C 262.449 340.249,262.515 340.184,262.342 339.904 C 262.189 339.656,262.226 339.453,262.425 339.453 C 262.832 339.453,267.578 335.002,267.578 334.620 C 267.578 333.976,266.744 334.545,265.077 336.328 M179.608 346.694 C 179.493 346.809,178.804 346.957,178.076 347.022 C 177.349 347.087,176.227 347.439,175.584 347.803 C 174.333 348.512,174.625 348.474,178.223 347.455 C 179.458 347.106,180.469 346.744,180.469 346.652 C 180.469 346.414,179.858 346.444,179.608 346.694 M170.117 349.087 C 168.190 349.632,165.371 350.058,163.086 350.149 C 162.441 350.174,161.817 350.325,161.698 350.484 C 161.579 350.643,160.005 350.870,158.200 350.987 C 154.481 351.230,154.421 351.251,155.339 351.995 C 155.708 352.294,155.895 352.348,155.755 352.114 C 155.588 351.834,156.131 351.664,157.336 351.619 C 160.199 351.510,173.676 349.111,174.164 348.622 C 174.528 348.258,172.034 348.545,170.117 349.087 M143.848 351.051 C 144.224 351.149,144.839 351.149,145.215 351.051 C 145.591 350.952,145.283 350.872,144.531 350.872 C 143.779 350.872,143.472 350.952,143.848 351.051 M178.711 369.531 C 179.769 370.605,180.723 371.484,180.830 371.484 C 180.937 371.484,180.160 370.605,179.102 369.531 C 178.043 368.457,177.090 367.578,176.982 367.578 C 176.875 367.578,177.653 368.457,178.711 369.531 M209.080 372.628 C 207.736 373.215,206.729 373.786,206.841 373.898 C 206.953 374.010,207.873 373.703,208.884 373.216 C 209.896 372.728,210.841 372.402,210.985 372.490 C 211.129 372.579,211.347 372.389,211.470 372.068 C 211.593 371.747,211.656 371.502,211.609 371.524 C 211.562 371.545,210.424 372.042,209.080 372.628 M203.799 374.785 C 202.576 375.282,199.815 376.265,197.662 376.971 C 195.509 377.676,193.832 378.337,193.935 378.440 C 194.038 378.543,195.294 378.231,196.727 377.747 C 198.160 377.263,199.811 376.834,200.396 376.794 C 200.982 376.753,201.773 376.407,202.156 376.025 C 202.538 375.643,203.137 375.405,203.488 375.497 C 203.838 375.588,204.357 375.414,204.641 375.110 C 204.926 374.806,205.398 374.649,205.692 374.761 C 205.985 374.874,206.321 374.810,206.439 374.619 C 206.907 373.863,205.914 373.925,203.799 374.785 M189.707 379.263 C 187.817 379.804,187.521 380.000,187.995 380.393 C 188.452 380.773,188.669 380.747,189.066 380.269 C 189.370 379.903,189.864 379.765,190.338 379.916 C 190.852 380.079,191.023 380.016,190.846 379.729 C 190.686 379.471,190.902 379.277,191.383 379.248 C 192.674 379.170,192.887 379.118,193.197 378.809 C 193.649 378.356,192.224 378.542,189.707 379.263 " stroke="none" fill="#127b9c" fill-rule="evenodd"/></g><text x="450" y="350" fill="#043c6b" font-family="Inter, Helvetica, Arial, sans-serif" font-size="200" font-weight="800" letter-spacing="8" dominant-baseline="middle">SWIFTEL FIBRE</text><text x="450" y="450" fill="#127b9c" font-family="Inter, Helvetica, Arial, sans-serif" font-size="110" font-weight="500" letter-spacing="2" text-anchor="start" dominant-baseline="hanging">Empowering Internet Generation</text></svg>